<svg id="svg" version="1.1" xmlns="http://www.w3.org/2000/svg" xmlns:xlink="http://www.w3.org/1999/xlink" width="400" height="394.01069518716577" viewBox="0, 0, 400,394.01069518716577"><g id="svgg"><path id="path0" d="M323.557 0.759 C 322.371 1.175,321.336 1.707,321.257 1.942 C 321.179 2.177,320.967 2.278,320.786 2.166 C 320.606 2.055,320.217 2.187,319.924 2.459 C 319.630 2.732,319.128 3.014,318.808 3.085 C 318.488 3.156,317.625 3.688,316.890 4.267 C 316.155 4.846,314.856 5.813,314.003 6.415 C 311.029 8.515,305.065 13.833,304.820 14.604 C 304.685 15.031,304.438 15.297,304.271 15.194 C 303.857 14.938,300.460 18.562,300.624 19.087 C 300.696 19.318,300.617 19.369,300.448 19.200 C 300.043 18.795,293.959 24.852,294.268 25.352 C 294.399 25.564,294.330 25.629,294.115 25.496 C 293.603 25.180,290.729 28.126,291.125 28.561 C 291.292 28.745,291.226 28.779,290.978 28.637 C 290.451 28.336,281.371 38.137,280.811 39.613 C 280.606 40.151,280.213 40.591,279.936 40.591 C 279.349 40.591,277.584 42.873,277.744 43.427 C 277.803 43.633,277.677 43.694,277.463 43.562 C 277.249 43.430,276.601 44.037,276.022 44.912 C 275.443 45.787,274.796 46.502,274.585 46.502 C 274.374 46.502,274.300 46.759,274.421 47.074 C 274.551 47.415,274.449 47.573,274.167 47.467 C 273.907 47.370,273.251 47.950,272.709 48.756 C 272.167 49.562,271.015 51.055,270.148 52.075 C 266.941 55.846,264.392 59.515,264.668 59.962 C 264.837 60.236,264.777 60.311,264.517 60.150 C 264.026 59.847,262.245 62.665,261.644 64.696 C 261.067 66.649,261.556 69.762,262.398 69.494 C 262.960 69.315,262.970 69.346,262.463 69.707 C 260.224 71.304,266.564 75.667,271.118 75.663 C 274.844 75.659,279.603 72.306,279.720 69.601 C 279.729 69.408,279.907 69.142,280.116 69.010 C 280.665 68.661,283.350 65.078,283.350 64.693 C 283.350 64.514,283.889 63.851,284.548 63.218 C 285.208 62.586,286.482 61.005,287.380 59.704 C 288.278 58.404,289.509 56.897,290.115 56.355 C 290.721 55.813,291.627 54.808,292.129 54.121 C 293.638 52.057,304.499 39.972,306.812 37.785 C 307.996 36.664,308.966 35.605,308.966 35.431 C 308.966 35.257,310.473 33.614,312.315 31.780 C 314.158 29.946,315.665 28.557,315.665 28.692 C 315.665 28.828,316.640 27.975,317.833 26.798 L 320.000 24.657 319.966 123.757 C 319.947 178.262,319.799 225.163,319.636 227.980 C 319.472 230.836,319.494 233.304,319.687 233.558 C 319.878 233.809,319.881 234.073,319.694 234.149 C 319.251 234.328,317.920 246.587,318.276 247.208 C 318.427 247.470,318.396 247.544,318.207 247.372 C 317.825 247.024,316.348 254.095,316.639 254.877 C 316.740 255.148,316.671 255.369,316.486 255.369 C 316.300 255.369,316.024 256.201,315.871 257.218 C 315.719 258.235,315.255 259.926,314.841 260.977 C 313.980 263.161,313.899 263.809,314.534 263.417 C 314.807 263.248,314.902 263.354,314.780 263.689 C 314.671 263.990,314.406 264.200,314.192 264.156 C 313.676 264.049,312.353 268.980,312.733 269.594 C 312.921 269.899,312.863 269.970,312.573 269.791 C 312.119 269.511,311.929 270.194,312.055 271.649 C 312.089 272.040,311.968 272.269,311.785 272.156 C 311.399 271.917,310.477 274.650,310.779 275.139 C 310.891 275.320,310.776 275.468,310.523 275.468 C 310.270 275.468,310.165 275.732,310.288 276.054 C 310.412 276.377,310.327 276.599,310.099 276.547 C 309.870 276.495,308.822 278.632,307.769 281.295 C 306.716 283.958,305.301 287.104,304.625 288.286 C 303.949 289.467,303.524 290.641,303.680 290.894 C 303.870 291.201,303.791 291.247,303.442 291.031 C 303.060 290.795,302.990 290.889,303.180 291.384 C 303.322 291.756,303.285 291.965,303.095 291.848 C 302.741 291.629,301.741 293.666,301.741 294.607 C 301.741 294.899,301.593 295.046,301.412 294.935 C 301.232 294.823,301.084 294.881,301.084 295.064 C 301.084 295.247,300.460 296.364,299.699 297.546 C 298.937 298.729,298.403 299.929,298.512 300.213 C 298.621 300.498,298.554 300.634,298.364 300.516 C 297.979 300.279,296.617 302.159,296.617 302.926 C 296.617 303.194,296.482 303.330,296.317 303.228 C 296.152 303.126,295.913 303.371,295.786 303.773 C 295.658 304.174,295.020 305.101,294.368 305.832 C 293.715 306.562,293.272 307.398,293.384 307.689 C 293.496 307.980,293.429 308.120,293.235 308.001 C 293.041 307.881,292.439 308.541,291.896 309.467 C 291.353 310.393,290.434 311.626,289.853 312.207 C 289.231 312.829,288.917 313.457,289.090 313.737 C 289.265 314.020,289.217 314.108,288.969 313.955 C 288.566 313.705,287.882 314.752,288.026 315.399 C 288.066 315.577,287.945 315.629,287.757 315.513 C 287.390 315.286,285.714 317.337,285.714 318.014 C 285.714 318.239,285.537 318.424,285.320 318.424 C 285.103 318.424,284.926 318.700,284.926 319.038 C 284.926 319.376,284.765 319.553,284.567 319.431 C 284.176 319.189,280.197 323.745,280.197 324.435 C 280.197 324.669,280.080 324.744,279.938 324.601 C 279.539 324.203,278.595 325.153,278.885 325.660 C 279.026 325.907,278.992 325.973,278.810 325.807 C 278.361 325.399,276.220 327.496,276.530 328.041 C 276.666 328.278,276.632 328.342,276.456 328.182 C 276.057 327.821,270.694 333.007,270.983 333.474 C 271.098 333.660,271.030 333.764,270.832 333.704 C 270.366 333.564,263.251 339.676,263.251 340.215 C 263.251 340.440,263.135 340.507,262.992 340.365 C 262.593 339.966,261.649 340.916,261.939 341.424 C 262.080 341.670,262.055 341.745,261.883 341.590 C 261.404 341.158,260.037 342.040,260.348 342.581 C 260.497 342.841,260.479 342.927,260.307 342.772 C 259.818 342.331,258.264 343.341,255.540 345.870 C 255.039 346.334,254.540 346.625,254.431 346.516 C 254.322 346.407,253.646 346.730,252.929 347.235 C 251.157 348.481,250.633 349.024,250.922 349.313 C 251.056 349.447,250.826 349.560,250.411 349.564 C 249.995 349.568,247.822 350.676,245.581 352.027 C 243.341 353.378,241.124 354.707,240.655 354.981 C 238.486 356.248,227.355 361.355,225.419 361.972 C 224.227 362.352,222.365 363.064,221.281 363.555 C 218.614 364.762,211.930 366.792,205.714 368.283 C 204.305 368.621,202.798 368.998,202.365 369.122 C 192.915 371.822,159.681 373.428,153.674 371.475 C 153.360 371.373,152.039 371.193,150.739 371.075 C 148.564 370.878,142.239 369.705,139.901 369.066 C 139.360 368.918,138.650 368.748,138.325 368.689 C 138.000 368.630,137.468 368.495,137.143 368.388 C 136.499 368.177,126.675 365.709,125.714 365.516 C 124.771 365.328,121.623 364.049,121.089 363.637 C 120.821 363.431,120.294 363.379,119.919 363.524 C 119.543 363.668,119.367 363.655,119.527 363.494 C 119.796 363.226,115.808 361.379,114.958 361.379 C 114.429 361.379,109.798 359.304,109.548 358.955 C 109.435 358.797,107.921 358.059,106.184 357.316 C 102.135 355.583,99.700 354.337,99.008 353.645 C 98.706 353.343,98.296 353.197,98.096 353.320 C 97.897 353.443,97.734 353.353,97.734 353.120 C 97.734 352.887,97.069 352.394,96.256 352.024 C 95.443 351.654,92.623 349.884,89.989 348.090 C 87.355 346.295,85.014 344.828,84.787 344.828 C 84.560 344.828,84.232 344.574,84.059 344.265 C 83.700 343.624,80.570 341.281,80.073 341.281 C 79.892 341.281,79.048 340.567,78.197 339.696 C 77.346 338.824,76.030 337.719,75.271 337.241 C 74.512 336.763,73.271 335.749,72.512 334.989 C 71.754 334.228,71.000 333.648,70.837 333.699 C 70.675 333.751,70.571 333.660,70.607 333.498 C 70.689 333.123,60.304 322.759,59.846 322.759 C 59.660 322.759,59.507 322.600,59.507 322.407 C 59.507 321.964,57.324 319.104,55.750 317.486 C 55.093 316.809,53.681 314.951,52.614 313.355 C 51.547 311.760,50.445 310.366,50.165 310.259 C 49.884 310.151,49.655 309.893,49.655 309.684 C 49.655 309.296,47.362 305.774,46.877 305.419 C 46.730 305.310,46.497 304.867,46.360 304.433 C 46.224 304.000,45.612 303.061,45.000 302.348 C 44.388 301.634,43.110 299.550,42.159 297.717 C 41.208 295.884,40.320 294.384,40.186 294.384 C 39.903 294.384,38.848 292.307,36.885 287.882 C 36.115 286.148,34.950 283.684,34.295 282.408 C 33.639 281.131,33.103 279.850,33.103 279.562 C 33.103 279.273,32.660 278.035,32.118 276.809 C 31.576 275.584,31.127 274.293,31.121 273.941 C 31.114 273.589,30.672 272.414,30.139 271.330 C 29.606 270.246,29.168 269.149,29.166 268.893 C 29.164 268.636,28.973 267.926,28.741 267.316 C 28.509 266.706,28.332 266.207,28.349 266.207 C 28.365 266.207,28.033 264.960,27.611 263.437 C 27.189 261.913,26.470 258.810,26.014 256.540 C 25.558 254.271,25.031 252.059,24.842 251.626 C 23.015 247.427,21.429 220.661,22.460 211.429 C 22.629 209.911,22.887 207.429,23.032 205.911 C 23.178 204.394,23.648 201.202,24.077 198.818 C 24.506 196.433,24.895 194.012,24.940 193.436 C 24.985 192.860,25.140 192.462,25.284 192.551 C 25.428 192.640,25.669 191.958,25.819 191.036 C 26.407 187.419,28.925 177.779,29.747 175.996 C 30.744 173.833,32.287 169.458,32.052 169.458 C 31.927 169.458,32.000 169.236,32.215 168.966 C 32.429 168.695,32.994 167.409,33.471 166.108 C 33.948 164.808,34.573 163.380,34.861 162.934 C 35.149 162.489,36.377 159.957,37.590 157.307 C 38.802 154.657,40.151 152.106,40.587 151.638 C 41.023 151.170,41.379 150.643,41.379 150.468 C 41.379 149.744,41.458 149.530,41.932 148.966 C 42.205 148.640,42.933 147.490,43.551 146.410 C 44.168 145.330,44.968 144.129,45.328 143.743 C 45.688 143.356,46.631 141.935,47.422 140.584 C 48.214 139.233,49.483 137.431,50.243 136.579 C 51.004 135.726,51.626 134.888,51.626 134.715 C 51.626 132.974,66.897 116.270,73.365 110.936 C 79.311 106.033,84.935 101.675,85.318 101.674 C 85.536 101.674,86.512 100.965,87.488 100.099 C 88.463 99.232,89.449 98.523,89.679 98.523 C 89.909 98.522,90.441 98.202,90.862 97.810 C 91.282 97.419,91.728 97.109,91.854 97.121 C 91.979 97.133,93.221 96.413,94.612 95.522 C 96.004 94.630,97.940 93.478,98.915 92.960 C 99.890 92.443,100.818 91.842,100.978 91.626 C 101.138 91.409,101.271 91.368,101.275 91.535 C 101.281 91.849,104.478 90.350,104.828 89.869 C 104.936 89.720,105.291 89.488,105.616 89.353 C 110.787 87.214,115.014 85.195,114.790 84.971 C 114.634 84.815,114.797 84.799,115.153 84.935 C 115.508 85.072,116.212 84.918,116.717 84.594 C 117.222 84.269,119.675 83.347,122.167 82.544 C 124.660 81.741,126.869 80.984,127.077 80.862 C 127.285 80.740,127.889 80.594,128.420 80.537 C 128.952 80.481,129.491 80.274,129.619 80.079 C 129.887 79.671,129.688 79.720,138.410 77.893 C 142.033 77.133,147.264 76.219,150.035 75.860 C 152.807 75.501,155.429 75.003,155.862 74.755 C 156.426 74.431,164.945 74.243,185.813 74.092 C 218.270 73.859,216.531 74.014,219.070 71.122 C 221.294 68.589,221.750 66.808,221.214 62.748 C 221.121 62.037,220.878 61.559,220.674 61.684 C 220.471 61.810,220.404 61.653,220.526 61.335 C 220.825 60.556,218.097 57.582,216.355 56.787 C 213.493 55.481,160.651 55.798,151.145 57.178 C 149.621 57.400,147.576 57.655,146.601 57.746 C 145.626 57.837,142.966 58.275,140.690 58.720 C 138.414 59.165,136.283 59.577,135.954 59.636 C 135.625 59.694,135.181 59.843,134.968 59.967 C 134.756 60.091,133.872 60.311,133.005 60.456 C 130.630 60.854,121.605 63.150,121.379 63.414 C 121.271 63.541,120.762 63.691,120.249 63.747 C 119.736 63.804,118.760 64.108,118.082 64.423 C 117.403 64.738,114.542 65.808,111.724 66.800 C 106.662 68.583,100.814 71.207,100.557 71.812 C 100.485 71.983,100.275 72.030,100.091 71.916 C 99.627 71.630,96.150 73.363,96.395 73.759 C 96.504 73.935,96.288 73.963,95.916 73.820 C 95.421 73.630,95.327 73.700,95.563 74.083 C 95.779 74.433,95.733 74.511,95.423 74.319 C 95.169 74.162,94.388 74.378,93.687 74.799 C 92.987 75.220,90.818 76.409,88.867 77.440 C 86.916 78.472,85.261 79.470,85.189 79.658 C 85.117 79.846,84.815 80.000,84.519 80.000 C 84.222 80.000,83.799 80.310,83.578 80.690 C 83.357 81.069,83.171 81.238,83.165 81.065 C 83.158 80.892,82.367 81.291,81.407 81.952 C 80.447 82.612,79.516 83.153,79.338 83.154 C 79.160 83.154,78.394 83.696,77.635 84.358 C 76.877 85.020,75.768 85.823,75.172 86.141 C 74.576 86.459,74.089 86.922,74.089 87.169 C 74.089 87.417,73.971 87.502,73.828 87.358 C 73.530 87.061,70.998 88.870,70.224 89.933 C 69.941 90.322,69.523 90.640,69.295 90.640 C 68.658 90.640,64.813 93.835,64.936 94.263 C 64.995 94.470,64.886 94.542,64.693 94.423 C 64.217 94.129,62.976 95.546,63.349 95.957 C 63.512 96.137,63.428 96.159,63.163 96.007 C 62.586 95.675,56.104 101.360,56.266 102.056 C 56.325 102.312,56.205 102.417,55.998 102.289 C 55.477 101.967,48.010 109.521,48.333 110.044 C 48.477 110.276,48.414 110.355,48.193 110.218 C 47.775 109.960,44.261 113.846,44.433 114.377 C 44.488 114.543,44.383 114.635,44.201 114.581 C 44.019 114.527,42.867 115.655,41.640 117.089 C 39.495 119.594,38.899 120.559,39.864 119.962 C 40.148 119.787,40.212 119.854,40.034 120.143 C 39.877 120.396,39.588 120.505,39.393 120.384 C 39.197 120.263,38.246 121.280,37.280 122.644 C 36.313 124.007,34.999 125.744,34.359 126.502 C 33.719 127.261,32.635 128.833,31.951 129.995 C 31.267 131.157,30.279 132.739,29.755 133.509 C 29.232 134.280,28.912 135.085,29.044 135.299 C 29.176 135.513,29.100 135.575,28.875 135.436 C 28.643 135.292,27.827 136.415,26.988 138.035 C 26.175 139.603,25.201 141.241,24.825 141.675 C 24.449 142.108,23.382 144.059,22.454 146.010 C 21.525 147.961,20.431 150.177,20.023 150.936 C 18.821 153.166,17.333 156.465,16.290 159.212 C 15.755 160.621,14.903 162.660,14.396 163.744 C 13.140 166.428,12.102 170.135,12.448 170.696 C 12.611 170.959,12.563 171.051,12.336 170.911 C 11.900 170.642,10.997 173.022,10.899 174.698 C 10.865 175.284,10.704 175.763,10.542 175.763 C 10.379 175.763,10.246 176.083,10.246 176.473 C 10.246 176.863,10.087 177.351,9.892 177.557 C 9.518 177.952,7.993 183.803,7.740 185.813 C 7.658 186.463,7.490 187.261,7.367 187.586 C 7.005 188.542,5.547 197.438,5.353 199.880 C 5.254 201.114,4.967 202.511,4.714 202.984 C 4.359 203.647,4.364 203.912,4.733 204.140 C 5.098 204.366,5.084 204.479,4.675 204.616 C 3.635 204.962,3.920 241.828,4.979 243.989 C 5.258 244.558,5.385 245.124,5.262 245.247 C 4.714 245.795,8.502 265.935,9.650 268.571 C 9.933 269.222,10.900 272.236,11.800 275.271 C 12.700 278.305,13.849 281.675,14.353 282.759 C 14.857 283.842,15.938 286.414,16.754 288.473 C 18.825 293.694,18.980 293.997,19.435 293.716 C 19.683 293.563,19.737 293.731,19.574 294.155 C 19.275 294.935,20.195 296.505,20.690 296.057 C 20.868 295.895,20.892 295.974,20.745 296.231 C 20.394 296.843,22.490 301.113,22.990 300.805 C 23.201 300.674,23.250 300.767,23.099 301.011 C 22.797 301.499,23.445 302.907,25.163 305.497 C 25.781 306.429,26.862 308.284,27.564 309.619 C 28.266 310.954,29.160 312.390,29.551 312.809 C 29.941 313.228,30.572 314.176,30.953 314.914 C 32.228 317.389,34.806 320.756,35.238 320.511 C 35.473 320.377,35.535 320.411,35.377 320.586 C 35.061 320.935,37.983 325.290,40.007 327.488 C 40.705 328.246,41.433 329.156,41.624 329.510 C 42.546 331.219,53.233 342.490,53.674 342.218 C 53.858 342.104,53.961 342.184,53.901 342.397 C 53.748 342.944,58.720 347.632,59.162 347.359 C 59.363 347.235,59.479 347.280,59.420 347.458 C 59.320 347.758,62.234 350.493,66.306 353.923 C 67.227 354.698,69.222 356.200,70.739 357.259 C 72.256 358.318,73.586 359.285,73.695 359.408 C 74.457 360.271,77.434 362.095,77.756 361.896 C 77.973 361.762,78.040 361.832,77.904 362.052 C 77.768 362.272,78.361 362.769,79.223 363.158 C 80.084 363.546,80.788 363.999,80.788 364.166 C 80.788 364.522,83.089 365.989,83.941 366.176 C 84.266 366.247,84.621 366.409,84.729 366.536 C 85.593 367.547,96.343 373.279,96.702 372.920 C 96.836 372.786,96.946 372.894,96.946 373.160 C 96.946 373.425,97.123 373.533,97.340 373.399 C 97.557 373.265,97.734 373.350,97.734 373.587 C 97.734 373.824,98.576 374.388,99.606 374.840 C 104.149 376.834,108.913 378.706,109.063 378.556 C 109.153 378.466,109.810 378.788,110.522 379.272 C 111.235 379.755,114.634 380.989,118.077 382.014 C 121.519 383.038,124.887 384.120,125.563 384.419 C 126.785 384.959,134.514 386.791,137.143 387.164 C 140.546 387.647,146.458 388.669,146.995 388.867 C 148.165 389.298,148.580 389.350,157.438 390.176 C 162.501 390.648,186.085 390.346,189.951 389.760 C 194.425 389.081,194.483 389.072,200.394 388.028 C 206.422 386.963,213.050 385.559,213.574 385.236 C 213.756 385.123,214.548 384.948,215.334 384.848 C 216.121 384.747,217.155 384.391,217.632 384.056 C 218.110 383.722,218.877 383.448,219.336 383.448 C 219.796 383.448,221.220 383.081,222.500 382.632 C 223.780 382.184,225.169 381.745,225.587 381.656 C 227.579 381.236,232.512 379.402,232.512 379.081 C 232.512 378.882,232.712 378.719,232.956 378.719 C 233.514 378.719,240.521 375.938,240.788 375.611 C 240.897 375.478,241.251 375.319,241.576 375.257 C 242.754 375.034,244.335 374.281,244.335 373.942 C 244.335 373.752,244.516 373.596,244.737 373.596 C 245.492 373.596,252.943 369.717,253.763 368.897 C 254.213 368.447,254.803 368.074,255.074 368.069 C 255.855 368.053,259.716 365.463,259.412 365.159 C 259.261 365.008,259.433 364.998,259.795 365.137 C 260.223 365.301,260.838 365.000,261.560 364.271 C 262.170 363.656,263.198 362.895,263.846 362.580 C 265.532 361.761,268.909 359.386,269.281 358.759 C 269.454 358.466,269.790 358.227,270.028 358.227 C 270.429 358.227,273.046 356.280,274.877 354.620 C 277.259 352.460,278.845 351.137,279.053 351.135 C 279.505 351.131,281.181 349.468,281.084 349.120 C 281.030 348.927,281.137 348.768,281.322 348.768 C 281.507 348.768,282.121 348.340,282.685 347.817 C 283.250 347.293,284.097 346.595,284.568 346.266 C 285.038 345.936,286.446 344.514,287.696 343.106 C 288.947 341.697,290.051 340.626,290.151 340.726 C 290.251 340.825,290.980 340.116,291.772 339.149 C 292.564 338.183,293.963 336.616,294.882 335.668 C 297.157 333.318,300.545 329.352,302.531 326.715 C 303.435 325.514,304.499 324.181,304.895 323.753 C 305.959 322.602,307.615 320.282,308.305 318.977 C 308.637 318.348,309.456 317.243,310.125 316.522 C 310.793 315.801,311.239 315.048,311.115 314.847 C 310.991 314.647,311.088 314.483,311.330 314.483 C 311.572 314.483,311.670 314.321,311.548 314.122 C 311.425 313.924,311.470 313.702,311.646 313.630 C 312.091 313.446,314.483 309.897,314.483 309.420 C 314.483 309.206,314.648 308.972,314.851 308.900 C 315.769 308.572,325.158 289.676,324.419 289.643 C 324.264 289.636,324.466 289.382,324.867 289.078 C 325.294 288.754,325.473 288.326,325.299 288.044 C 325.133 287.776,325.165 287.664,325.371 287.791 C 325.713 288.003,328.646 280.705,329.293 278.030 C 329.451 277.379,329.702 276.759,329.852 276.650 C 330.306 276.321,332.552 268.282,333.210 264.631 C 333.288 264.197,333.530 263.133,333.748 262.266 C 333.966 261.399,334.251 260.076,334.383 259.326 C 334.514 258.577,334.768 257.779,334.947 257.553 C 335.367 257.024,336.264 251.798,335.984 251.517 C 335.866 251.400,335.927 251.110,336.118 250.874 C 336.310 250.637,336.750 247.783,337.096 244.532 C 337.443 241.281,337.849 237.557,337.999 236.256 C 338.148 234.956,338.328 189.734,338.399 135.764 C 338.469 81.793,338.570 34.975,338.623 31.724 L 338.719 25.813 347.122 34.187 C 351.744 38.793,355.690 42.562,355.891 42.562 C 356.092 42.562,356.212 42.698,356.158 42.866 C 355.995 43.367,359.074 46.907,359.463 46.666 C 359.661 46.544,359.774 46.596,359.714 46.782 C 359.606 47.122,361.714 49.829,363.955 52.226 C 364.614 52.931,365.838 54.369,366.677 55.423 C 367.515 56.477,368.722 57.872,369.358 58.522 C 369.994 59.172,371.487 60.990,372.675 62.562 C 373.863 64.133,375.000 65.419,375.201 65.419 C 375.402 65.419,375.567 65.598,375.567 65.816 C 375.567 66.429,377.962 69.569,378.349 69.463 C 378.537 69.411,378.578 69.662,378.441 70.020 C 378.275 70.454,378.343 70.577,378.648 70.389 C 378.930 70.214,379.027 70.308,378.902 70.633 C 378.696 71.170,382.586 75.198,384.039 75.953 C 388.117 78.071,394.416 75.641,396.225 71.251 C 397.131 69.052,396.915 63.116,395.951 63.712 C 395.686 63.876,395.626 63.726,395.786 63.307 C 395.937 62.913,395.760 62.361,395.352 61.953 C 394.974 61.575,394.197 60.470,393.626 59.499 C 392.205 57.081,390.307 54.751,390.004 55.054 C 389.866 55.191,389.754 55.090,389.754 54.830 C 389.754 54.234,386.334 49.728,383.807 46.995 C 382.755 45.857,382.005 44.926,382.141 44.926 C 382.277 44.926,382.071 44.576,381.683 44.147 C 381.296 43.719,380.845 43.451,380.681 43.552 C 380.518 43.653,380.409 43.482,380.439 43.172 C 380.468 42.861,380.346 42.609,380.167 42.611 C 379.744 42.615,377.932 40.510,377.932 40.015 C 377.931 39.806,376.984 38.653,375.827 37.453 C 374.670 36.253,372.586 34.033,371.196 32.519 C 369.807 31.006,367.562 28.665,366.207 27.317 C 364.852 25.970,363.744 24.725,363.743 24.552 C 363.743 24.119,353.579 14.331,348.768 10.131 C 348.227 9.657,347.650 9.312,347.488 9.364 C 347.325 9.416,347.236 9.301,347.291 9.108 C 347.392 8.747,344.554 6.305,344.032 6.305 C 343.871 6.305,343.230 5.791,342.608 5.163 C 338.386 0.894,329.218 -1.225,323.557 0.759 M175.608 130.441 C 172.374 132.039,171.823 133.537,171.823 140.714 C 171.823 148.855,171.446 149.603,166.881 150.539 C 163.457 151.240,159.592 152.565,159.833 152.954 C 159.947 153.140,159.782 153.192,159.465 153.070 C 158.928 152.864,156.500 153.862,156.059 154.470 C 155.951 154.620,154.887 155.260,153.695 155.893 C 151.238 157.198,144.513 163.433,144.896 164.051 C 145.036 164.278,144.955 164.338,144.711 164.188 C 144.203 163.874,143.341 165.264,143.758 165.726 C 143.913 165.897,143.827 165.916,143.567 165.766 C 142.992 165.437,142.113 166.921,142.506 167.557 C 142.665 167.815,142.607 167.896,142.369 167.748 C 142.132 167.602,141.669 168.209,141.287 169.165 C 140.919 170.085,140.177 171.772,139.637 172.914 C 136.891 178.720,136.992 198.045,139.778 200.099 C 140.145 200.369,140.261 200.591,140.034 200.591 C 139.808 200.591,140.047 201.478,140.565 202.562 C 141.084 203.645,141.689 204.532,141.910 204.532 C 142.132 204.532,142.213 204.693,142.091 204.891 C 141.778 205.397,142.277 206.542,142.697 206.283 C 142.888 206.164,142.948 206.320,142.829 206.630 C 142.425 207.684,152.129 216.787,154.116 217.218 C 154.426 217.285,154.768 217.440,154.877 217.563 C 155.524 218.296,159.870 220.845,162.562 222.072 C 164.296 222.862,166.601 223.926,167.685 224.437 C 168.768 224.948,171.987 226.162,174.837 227.135 C 180.051 228.916,185.176 231.182,188.742 233.285 C 189.802 233.910,190.802 234.302,190.964 234.156 C 191.127 234.011,191.146 234.090,191.008 234.333 C 190.869 234.576,191.702 235.641,192.858 236.700 C 199.368 242.663,199.737 256.573,193.515 261.478 C 192.690 262.128,192.111 262.837,192.228 263.054 C 192.346 263.271,192.296 263.316,192.118 263.155 C 191.939 262.993,191.213 263.303,190.504 263.844 C 189.795 264.385,189.016 264.828,188.772 264.828 C 188.528 264.828,188.454 265.032,188.609 265.283 C 188.775 265.552,188.718 265.631,188.468 265.477 C 188.236 265.333,187.544 265.422,186.930 265.673 C 185.463 266.274,185.249 266.316,181.005 266.833 C 169.303 268.259,158.935 262.326,156.840 253.005 C 155.904 248.839,153.759 245.908,150.739 244.668 C 150.089 244.401,149.435 244.004,149.287 243.785 C 148.927 243.254,143.188 243.012,142.877 243.515 C 142.744 243.730,142.366 243.803,142.037 243.677 C 141.704 243.549,141.174 243.774,140.839 244.187 C 140.505 244.597,140.351 244.663,140.493 244.335 C 140.663 243.941,140.562 243.971,140.187 244.427 C 139.879 244.803,139.511 244.995,139.370 244.854 C 139.229 244.713,139.113 244.834,139.113 245.123 C 139.113 245.412,139.003 245.538,138.868 245.403 C 138.160 244.695,135.400 247.894,135.254 249.593 C 135.238 249.775,134.903 250.160,134.509 250.448 C 133.423 251.243,133.504 257.257,134.633 259.704 C 135.083 260.680,135.783 262.306,136.190 263.317 C 136.596 264.329,137.093 265.055,137.294 264.931 C 137.498 264.805,137.524 264.923,137.354 265.198 C 136.971 265.819,137.912 267.644,138.445 267.315 C 138.663 267.180,138.728 267.253,138.590 267.476 C 138.299 267.947,140.493 271.133,141.109 271.133 C 141.338 271.133,141.425 271.294,141.304 271.490 C 141.002 271.977,146.344 276.867,148.555 278.128 C 149.539 278.689,150.644 279.402,151.010 279.711 C 151.375 280.021,151.890 280.141,152.154 279.978 C 152.436 279.804,152.532 279.846,152.389 280.079 C 152.102 280.541,153.973 281.497,154.512 281.164 C 154.713 281.040,154.877 281.105,154.877 281.308 C 154.877 281.734,158.495 283.115,161.379 283.790 C 162.463 284.044,163.527 284.380,163.744 284.538 C 163.961 284.695,164.844 284.951,165.707 285.107 C 169.404 285.775,169.985 286.921,170.246 294.061 C 170.505 301.150,171.602 302.807,176.355 303.294 C 181.425 303.813,186.502 300.116,185.986 296.280 C 185.157 290.111,186.842 284.309,189.308 284.843 C 189.726 284.933,189.940 284.833,189.803 284.611 C 189.666 284.390,190.201 284.134,191.037 284.022 C 194.653 283.535,197.111 282.889,198.926 281.947 C 199.486 281.657,200.089 281.510,200.267 281.620 C 200.445 281.730,200.591 281.632,200.591 281.403 C 200.591 281.173,200.728 281.030,200.895 281.084 C 201.365 281.236,204.532 279.726,204.532 279.349 C 204.532 279.165,204.804 279.015,205.136 279.015 C 205.467 279.015,205.841 278.750,205.965 278.426 C 206.089 278.102,206.317 277.915,206.472 278.011 C 206.627 278.106,207.194 277.775,207.734 277.275 C 208.273 276.775,209.148 276.134,209.677 275.850 C 210.206 275.567,211.437 274.441,212.413 273.347 C 213.389 272.253,214.460 271.079,214.793 270.738 C 215.808 269.700,217.148 267.329,216.875 267.056 C 216.733 266.914,216.809 266.798,217.042 266.798 C 217.276 266.798,217.944 265.512,218.527 263.941 C 219.110 262.369,219.719 260.818,219.881 260.493 C 221.178 257.876,221.908 242.046,220.812 240.273 C 220.689 240.075,220.536 239.197,220.470 238.322 C 220.405 237.447,220.184 236.625,219.979 236.494 C 219.774 236.363,219.473 235.643,219.311 234.894 C 218.935 233.165,216.359 227.783,215.907 227.783 C 215.720 227.783,215.567 227.605,215.567 227.387 C 215.567 226.114,206.798 218.385,202.516 215.883 C 197.545 212.979,190.188 209.434,189.458 209.592 C 189.296 209.627,189.163 209.459,189.163 209.219 C 189.163 208.979,188.887 208.888,188.551 209.017 C 188.215 209.146,188.031 209.103,188.144 208.921 C 188.302 208.666,186.046 207.669,184.828 207.456 C 184.719 207.437,184.107 207.206,183.467 206.942 C 182.827 206.678,181.183 206.099,179.813 205.657 C 178.443 205.214,177.073 204.603,176.768 204.298 C 176.463 203.993,176.095 203.744,175.950 203.744 C 175.805 203.744,174.104 202.945,172.170 201.968 C 165.092 198.393,162.093 194.511,161.145 187.697 C 160.912 186.017,160.644 184.519,160.551 184.368 C 160.458 184.217,160.561 183.982,160.782 183.846 C 161.002 183.710,161.182 183.017,161.182 182.305 C 161.182 181.594,161.440 180.155,161.755 179.109 C 162.070 178.062,162.220 177.031,162.088 176.818 C 161.956 176.604,162.031 176.542,162.253 176.680 C 162.480 176.820,162.950 176.166,163.322 175.191 C 163.687 174.234,164.495 173.047,165.116 172.552 C 165.738 172.057,166.143 171.469,166.016 171.245 C 165.889 171.021,165.926 170.965,166.099 171.121 C 166.368 171.364,168.463 170.185,169.064 169.453 C 171.387 166.626,183.130 167.001,187.404 170.040 C 188.478 170.804,189.535 171.430,189.752 171.431 C 189.970 171.433,190.568 172.051,191.081 172.805 C 191.595 173.559,192.199 174.062,192.423 173.924 C 192.647 173.785,192.727 173.840,192.600 174.046 C 192.279 174.565,194.461 178.209,194.870 177.837 C 195.051 177.672,195.082 177.744,194.936 177.998 C 194.791 178.251,194.932 178.718,195.249 179.035 C 195.565 179.351,195.739 179.697,195.634 179.802 C 195.284 180.151,196.401 183.602,196.787 183.364 C 197.003 183.230,197.037 183.338,196.866 183.615 C 196.040 184.951,199.065 189.250,202.298 191.334 C 205.645 193.492,214.417 192.225,217.052 189.203 C 218.140 187.955,219.545 185.391,219.284 185.130 C 219.180 185.025,219.365 184.716,219.695 184.441 C 220.349 183.898,220.581 178.745,219.968 178.366 C 219.788 178.255,219.414 177.136,219.137 175.880 C 218.859 174.624,218.360 172.975,218.027 172.217 C 217.694 171.458,217.356 170.498,217.275 170.084 C 217.080 169.083,215.682 166.851,214.526 165.695 C 214.015 165.183,213.596 164.516,213.596 164.211 C 213.596 163.444,210.456 159.946,210.014 160.219 C 209.816 160.341,209.488 160.007,209.287 159.476 C 208.930 158.539,205.506 155.776,204.912 155.946 C 204.750 155.993,204.121 155.572,203.515 155.010 C 201.581 153.218,193.301 150.148,190.401 150.148 C 188.642 150.148,188.191 148.458,187.980 141.084 C 187.756 133.226,187.434 132.230,184.631 130.708 C 183.764 130.237,182.966 129.764,182.857 129.655 C 182.204 129.002,177.483 129.514,175.608 130.441 " stroke="none" fill="#0c64b4" fill-rule="evenodd"></path><path id="path1" d="" stroke="none" fill="#0c6cb4" fill-rule="evenodd"></path><path id="path2" d="" stroke="none" fill="#1064b4" fill-rule="evenodd"></path><path id="path3" d="" stroke="none" fill="#1064b4" fill-rule="evenodd"></path><path id="path4" d="" stroke="none" fill="#1064b4" fill-rule="evenodd"></path></g></svg>