<svg id="SvgjsSvg1001" width="288" height="288" xmlns="http://www.w3.org/2000/svg" version="1.1" xmlns:xlink="http://www.w3.org/1999/xlink" xmlns:svgjs="http://svgjs.com/svgjs"><defs id="SvgjsDefs1002"></defs><g id="SvgjsG1008" transform="matrix(1,0,0,1,0,0)"><svg xmlns="http://www.w3.org/2000/svg" width="288" height="288" viewBox="0 0 400 190.927"><path fill="#fcfcfe" fill-rule="evenodd" d="M147.399 7.840 C 147.399 7.939,147.189 8.019,146.933 8.019 C 146.676 8.019,146.415 8.103,146.352 8.205 C 146.288 8.307,145.940 8.532,145.577 8.704 C 145.214 8.876,144.916 9.093,144.916 9.186 C 144.916 9.279,144.764 9.356,144.577 9.356 C 144.390 9.356,144.113 9.527,143.962 9.737 C 143.810 9.947,143.573 10.119,143.434 10.119 C 143.071 10.119,142.246 10.995,142.228 11.399 C 142.220 11.600,142.173 11.643,142.117 11.504 C 142.064 11.372,141.890 11.265,141.730 11.265 C 141.552 11.265,141.481 11.374,141.546 11.545 C 141.606 11.699,141.559 11.884,141.442 11.957 C 141.313 12.036,141.284 12.001,141.366 11.867 C 141.597 11.494,141.295 11.623,140.814 12.104 C 140.563 12.355,140.409 12.613,140.473 12.677 C 140.537 12.740,140.416 12.792,140.205 12.792 C 139.758 12.792,139.121 13.418,139.331 13.650 C 139.410 13.737,139.373 13.750,139.249 13.679 C 139.004 13.538,131.360 20.969,131.360 21.348 C 131.360 21.469,130.806 22.122,130.129 22.800 C 129.405 23.524,128.991 24.070,129.126 24.125 C 129.252 24.176,129.197 24.225,129.003 24.233 C 128.656 24.248,127.160 25.719,127.160 26.045 C 127.160 26.097,126.730 26.569,126.205 27.094 C 125.680 27.619,125.251 28.145,125.251 28.264 C 125.251 28.382,124.907 28.809,124.487 29.212 C 124.067 29.616,123.723 30.040,123.723 30.154 C 123.723 30.268,123.454 30.640,123.126 30.980 C 122.797 31.321,122.313 31.921,122.050 32.315 C 121.787 32.709,121.498 33.031,121.407 33.031 C 121.316 33.031,121.241 33.161,121.241 33.319 C 121.241 33.478,120.983 33.877,120.668 34.207 C 120.353 34.536,120.095 34.922,120.095 35.064 C 120.095 35.206,120.010 35.322,119.905 35.322 C 119.800 35.322,119.714 35.494,119.714 35.704 C 119.714 35.914,119.628 36.086,119.524 36.086 C 119.155 36.086,119.333 39.130,119.747 39.883 C 120.208 40.723,121.118 41.623,121.506 41.623 C 121.663 41.623,121.839 41.701,121.898 41.796 C 122.078 42.086,125.147 42.036,125.730 41.733 C 126.370 41.402,127.542 40.183,127.542 39.851 C 127.542 39.717,127.714 39.483,127.924 39.332 C 128.134 39.180,128.305 38.942,128.305 38.801 C 128.305 38.660,128.391 38.599,128.496 38.663 C 128.601 38.728,128.687 38.669,128.688 38.532 C 128.688 38.394,128.911 38.024,129.184 37.709 C 130.022 36.742,130.886 35.468,130.831 35.281 C 130.802 35.183,130.860 35.153,130.959 35.215 C 131.059 35.276,131.337 35.046,131.577 34.704 C 131.817 34.361,132.235 33.866,132.506 33.604 C 133.285 32.848,133.879 31.908,133.730 31.666 C 133.643 31.526,133.676 31.496,133.820 31.585 C 134.104 31.761,135.406 30.386,135.237 30.090 C 135.171 29.975,135.184 29.940,135.264 30.012 C 135.345 30.085,135.616 29.938,135.868 29.687 C 136.361 29.194,136.471 28.914,136.086 29.136 C 135.947 29.216,135.914 29.201,136.006 29.100 C 136.094 29.004,136.235 28.926,136.319 28.926 C 136.531 28.926,138.822 26.561,139.385 25.760 C 139.638 25.401,140.169 24.792,140.567 24.406 C 141.280 23.714,141.514 23.327,141.050 23.605 C 140.888 23.703,140.895 23.645,141.073 23.426 C 141.357 23.076,141.576 22.983,141.384 23.294 C 140.995 23.923,141.812 23.243,143.390 21.623 L 145.203 19.761 145.251 64.419 C 145.279 90.846,145.229 109.163,145.126 109.288 C 145.031 109.404,144.942 110.615,144.927 111.979 C 144.913 113.344,144.818 114.542,144.718 114.643 C 144.617 114.743,144.535 115.405,144.535 116.113 C 144.535 116.821,144.449 117.453,144.344 117.518 C 144.239 117.583,144.153 118.103,144.153 118.675 C 144.153 119.246,144.067 119.714,143.962 119.714 C 143.857 119.714,143.771 120.052,143.771 120.466 C 143.771 120.880,143.685 121.272,143.580 121.337 C 143.305 121.507,143.344 122.386,143.628 122.390 C 143.801 122.392,143.794 122.438,143.603 122.559 C 143.459 122.651,143.399 122.820,143.470 122.936 C 143.552 123.068,143.490 123.104,143.303 123.032 C 143.075 122.945,143.007 123.054,143.007 123.512 C 143.007 123.852,143.109 124.111,143.246 124.118 C 143.377 124.125,143.289 124.225,143.051 124.340 C 142.706 124.506,142.627 124.686,142.663 125.220 C 142.689 125.613,142.612 125.923,142.476 125.969 C 142.348 126.011,142.243 126.297,142.243 126.603 C 142.243 126.909,142.158 127.160,142.053 127.160 C 141.947 127.160,141.862 127.337,141.862 127.553 C 141.862 127.814,141.942 127.900,142.100 127.809 C 142.232 127.733,142.137 127.893,141.889 128.165 C 141.642 128.437,141.497 128.752,141.567 128.865 C 141.637 128.979,141.561 129.123,141.396 129.186 C 141.221 129.254,141.098 129.529,141.098 129.853 C 141.098 130.157,141.012 130.406,140.907 130.406 C 140.802 130.406,140.716 130.663,140.716 130.979 C 140.716 131.294,140.630 131.551,140.525 131.551 C 140.420 131.551,140.334 131.800,140.334 132.104 C 140.334 132.416,140.211 132.703,140.051 132.765 C 139.895 132.824,139.814 132.994,139.871 133.142 C 139.928 133.290,139.840 133.463,139.677 133.525 C 139.513 133.588,139.379 133.754,139.379 133.894 C 139.379 134.250,138.932 135.176,138.759 135.178 C 138.680 135.178,138.616 135.351,138.616 135.561 C 138.616 135.771,138.530 135.943,138.425 135.943 C 138.320 135.943,138.234 136.115,138.234 136.325 C 138.234 136.535,138.148 136.706,138.043 136.706 C 137.938 136.706,137.850 136.900,137.848 137.136 C 137.845 137.372,137.676 137.780,137.470 138.043 C 137.265 138.305,137.095 138.628,137.093 138.759 C 137.090 138.890,137.002 138.998,136.897 138.998 C 136.792 138.998,136.706 139.153,136.706 139.343 C 136.706 139.534,136.527 139.882,136.308 140.117 C 136.089 140.352,135.957 140.669,136.016 140.821 C 136.079 140.985,136.008 141.098,135.841 141.098 C 135.687 141.098,135.561 141.251,135.561 141.438 C 135.561 141.624,135.389 141.901,135.179 142.053 C 134.969 142.204,134.797 142.481,134.797 142.667 C 134.797 142.854,134.711 143.007,134.606 143.007 C 134.501 143.007,134.415 143.142,134.415 143.306 C 134.415 143.470,134.158 143.821,133.842 144.087 C 133.527 144.352,133.269 144.668,133.268 144.790 C 133.267 144.912,132.966 145.328,132.600 145.715 C 132.233 146.102,131.933 146.519,131.933 146.641 C 131.933 146.763,131.675 147.104,131.360 147.399 C 131.045 147.693,130.788 148.037,130.788 148.162 C 130.788 148.288,130.518 148.643,130.187 148.952 C 129.609 149.492,129.601 149.523,129.949 149.795 C 130.205 149.995,130.227 150.062,130.024 150.027 C 129.866 149.999,129.681 149.898,129.612 149.802 C 129.470 149.607,128.878 150.122,128.878 150.440 C 128.878 150.552,128.792 150.644,128.687 150.644 C 128.582 150.644,128.496 150.773,128.496 150.931 C 128.496 151.088,128.409 151.217,128.301 151.217 C 128.194 151.217,128.009 151.432,127.889 151.695 C 127.769 151.957,127.595 152.172,127.502 152.172 C 127.183 152.172,126.376 153.130,126.511 153.349 C 126.594 153.483,126.562 153.515,126.428 153.433 C 126.299 153.353,125.454 154.061,124.342 155.180 C 123.315 156.215,122.325 157.119,122.144 157.188 C 121.962 157.258,121.814 157.404,121.814 157.512 C 121.814 157.620,121.721 157.709,121.608 157.709 C 121.495 157.709,121.072 158.053,120.668 158.473 C 120.265 158.893,119.836 159.236,119.715 159.236 C 119.395 159.236,118.907 159.776,119.036 159.985 C 119.097 160.084,119.046 160.227,118.923 160.303 C 118.784 160.389,118.751 160.358,118.836 160.220 C 118.911 160.099,118.881 160.000,118.770 160.000 C 118.659 160.000,118.568 160.086,118.568 160.191 C 118.568 160.296,118.387 160.382,118.166 160.382 C 117.890 160.382,117.797 160.470,117.871 160.662 C 117.930 160.816,117.883 161.001,117.766 161.074 C 117.638 161.153,117.608 161.118,117.691 160.984 C 117.927 160.602,117.520 160.745,117.232 161.146 C 117.080 161.356,116.847 161.527,116.714 161.527 C 116.490 161.527,116.024 161.852,115.410 162.434 C 115.272 162.566,115.024 162.673,114.859 162.673 C 114.693 162.673,114.558 162.759,114.558 162.864 C 114.558 162.969,114.427 163.055,114.266 163.055 C 114.105 163.055,113.924 163.183,113.864 163.340 C 113.804 163.497,113.678 163.578,113.584 163.520 C 113.490 163.462,113.413 163.553,113.413 163.723 C 113.413 163.893,113.334 163.983,113.237 163.924 C 112.983 163.766,112.430 164.381,112.589 164.645 C 112.662 164.768,112.576 164.750,112.396 164.604 C 112.111 164.373,112.021 164.397,111.673 164.795 C 111.455 165.046,111.156 165.225,111.008 165.194 C 110.861 165.164,110.740 165.228,110.740 165.338 C 110.740 165.447,110.573 165.537,110.369 165.537 C 110.165 165.537,109.946 165.623,109.881 165.728 C 109.816 165.833,109.591 165.919,109.381 165.919 C 109.171 165.919,109.052 166.005,109.117 166.110 C 109.184 166.218,109.023 166.301,108.746 166.301 C 108.478 166.301,108.258 166.387,108.258 166.492 C 108.258 166.597,108.086 166.683,107.876 166.683 C 107.666 166.683,107.494 166.809,107.494 166.963 C 107.494 167.143,107.383 167.201,107.184 167.124 C 106.997 167.053,106.803 167.132,106.695 167.325 C 106.596 167.501,106.433 167.594,106.331 167.531 C 106.230 167.468,105.971 167.617,105.756 167.861 C 105.541 168.106,105.419 168.198,105.486 168.067 C 105.553 167.936,105.516 167.828,105.405 167.828 C 105.294 167.828,105.203 167.914,105.203 168.019 C 105.203 168.124,105.031 168.210,104.821 168.210 C 104.611 168.210,104.439 168.296,104.439 168.401 C 104.439 168.506,104.229 168.592,103.973 168.592 C 103.717 168.592,103.454 168.678,103.389 168.783 C 103.324 168.888,103.040 168.976,102.757 168.980 C 102.165 168.987,101.515 169.410,101.721 169.655 C 101.798 169.746,101.720 169.713,101.548 169.581 C 101.294 169.389,101.183 169.393,100.973 169.603 C 100.830 169.746,100.619 169.832,100.504 169.794 C 100.390 169.756,100.187 169.856,100.053 170.018 C 99.919 170.179,99.606 170.310,99.356 170.310 C 99.106 170.310,98.902 170.396,98.902 170.501 C 98.902 170.606,98.558 170.692,98.138 170.692 C 97.718 170.692,97.375 170.778,97.375 170.883 C 97.375 170.988,97.074 171.074,96.706 171.074 C 96.339 171.074,96.038 171.160,96.038 171.265 C 96.038 171.370,95.695 171.456,95.274 171.456 C 94.854 171.456,94.511 171.542,94.511 171.647 C 94.511 171.752,94.167 171.838,93.747 171.838 C 93.327 171.838,92.983 171.924,92.983 172.029 C 92.983 172.134,92.645 172.220,92.231 172.220 C 91.817 172.220,91.425 172.305,91.360 172.411 C 91.295 172.516,90.653 172.601,89.933 172.601 C 89.101 172.601,88.596 172.683,88.549 172.826 C 88.499 172.974,88.037 173.034,87.177 173.003 C 86.143 172.965,85.910 173.007,86.031 173.208 C 86.156 173.416,86.129 173.417,85.879 173.214 C 85.691 173.062,85.549 173.042,85.508 173.161 C 85.412 173.439,72.875 173.468,72.782 173.190 C 72.741 173.068,72.172 172.983,71.392 172.983 C 70.639 172.983,70.072 172.901,70.072 172.792 C 70.072 172.685,69.531 172.601,68.831 172.601 C 68.130 172.601,67.589 172.518,67.589 172.411 C 67.589 172.305,67.165 172.220,66.646 172.220 C 66.127 172.220,65.650 172.134,65.585 172.029 C 65.520 171.924,65.176 171.838,64.821 171.838 C 64.466 171.838,64.122 171.752,64.057 171.647 C 63.992 171.542,63.601 171.456,63.187 171.456 C 62.773 171.456,62.434 171.370,62.434 171.265 C 62.434 171.160,62.091 171.074,61.671 171.074 C 61.251 171.074,60.907 170.988,60.907 170.883 C 60.907 170.778,60.649 170.692,60.334 170.692 C 60.019 170.692,59.761 170.606,59.761 170.501 C 59.761 170.396,59.540 170.310,59.270 170.310 C 59.000 170.310,58.648 170.178,58.487 170.017 C 58.325 169.856,58.041 169.773,57.855 169.832 C 57.642 169.900,57.470 169.821,57.393 169.620 C 57.325 169.445,57.215 169.357,57.147 169.424 C 57.079 169.492,56.814 169.410,56.557 169.243 C 56.301 169.075,55.894 168.975,55.653 169.021 C 55.342 169.081,55.243 169.030,55.312 168.848 C 55.382 168.668,55.236 168.592,54.818 168.592 C 54.491 168.592,54.224 168.506,54.224 168.401 C 54.224 168.296,54.053 168.210,53.842 168.210 C 53.632 168.210,53.461 168.124,53.461 168.019 C 53.461 167.914,53.334 167.828,53.180 167.828 C 53.026 167.828,52.594 167.656,52.220 167.446 C 51.846 167.236,51.413 167.064,51.259 167.064 C 51.105 167.064,50.979 166.979,50.979 166.874 C 50.979 166.768,50.769 166.683,50.512 166.683 C 50.256 166.683,49.993 166.597,49.928 166.492 C 49.864 166.387,49.644 166.301,49.440 166.301 C 49.236 166.301,49.069 166.215,49.069 166.110 C 49.069 166.005,48.897 165.919,48.687 165.919 C 48.477 165.919,48.305 165.833,48.305 165.728 C 48.305 165.623,48.153 165.537,47.966 165.537 C 47.779 165.537,47.502 165.365,47.351 165.155 C 47.199 164.945,46.923 164.773,46.736 164.773 C 46.549 164.773,46.396 164.687,46.396 164.582 C 46.396 164.477,46.304 164.391,46.192 164.391 C 46.079 164.391,45.867 164.284,45.721 164.153 C 45.070 163.569,44.869 163.437,44.633 163.437 C 44.494 163.437,44.256 163.265,44.105 163.055 C 43.954 162.845,43.677 162.673,43.490 162.673 C 43.303 162.673,43.150 162.587,43.150 162.482 C 43.150 162.377,43.013 162.291,42.845 162.291 C 42.677 162.291,42.299 162.033,42.005 161.718 C 41.710 161.403,41.367 161.146,41.241 161.146 C 41.115 161.146,40.772 160.888,40.477 160.573 C 40.183 160.258,39.849 160.000,39.735 160.000 C 39.541 160.000,39.054 159.652,38.465 159.093 C 38.327 158.962,38.097 158.854,37.956 158.854 C 37.814 158.854,37.577 158.687,37.430 158.483 C 37.282 158.278,37.090 158.156,37.001 158.211 C 36.913 158.265,36.852 158.239,36.868 158.153 C 36.935 157.766,36.834 157.505,36.659 157.613 C 36.554 157.678,36.468 157.636,36.468 157.520 C 36.468 157.256,35.813 156.602,34.940 155.994 C 34.573 155.737,34.044 155.288,33.766 154.995 C 33.487 154.703,33.160 154.463,33.039 154.463 C 32.917 154.463,32.871 154.377,32.936 154.272 C 33.000 154.167,32.960 154.081,32.846 154.081 C 32.584 154.081,30.931 152.439,30.931 152.179 C 30.931 151.930,30.504 151.410,29.260 150.145 C 28.709 149.584,28.258 149.054,28.258 148.967 C 28.258 148.811,27.479 147.878,26.356 146.688 C 26.037 146.350,25.776 145.954,25.776 145.809 C 25.776 145.664,25.518 145.276,25.203 144.947 C 24.888 144.617,24.630 144.254,24.630 144.141 C 24.630 143.843,24.090 143.347,23.895 143.467 C 23.805 143.523,23.771 143.356,23.821 143.097 C 23.873 142.823,23.821 142.625,23.698 142.625 C 23.580 142.625,23.484 142.474,23.484 142.289 C 23.484 142.104,23.275 141.795,23.020 141.603 C 22.760 141.408,22.601 141.136,22.658 140.985 C 22.715 140.837,22.681 140.716,22.582 140.716 C 22.483 140.716,22.153 140.239,21.848 139.656 C 21.400 138.799,21.219 138.614,20.909 138.691 C 20.548 138.782,20.546 138.772,20.867 138.532 C 21.174 138.302,21.179 138.247,20.914 137.982 C 20.753 137.821,20.621 137.553,20.621 137.388 C 20.621 137.223,20.535 137.088,20.430 137.088 C 20.325 137.088,20.239 136.916,20.239 136.706 C 20.239 136.496,20.153 136.325,20.048 136.325 C 19.943 136.325,19.857 136.153,19.857 135.943 C 19.857 135.733,19.771 135.561,19.666 135.561 C 19.561 135.561,19.475 135.398,19.475 135.199 C 19.475 135.001,19.348 134.789,19.192 134.729 C 19.036 134.670,18.956 134.497,19.014 134.346 C 19.072 134.195,19.027 134.015,18.915 133.946 C 18.803 133.877,18.711 133.653,18.711 133.449 C 18.711 133.246,18.625 133.079,18.520 133.079 C 18.415 133.079,18.329 132.869,18.329 132.613 C 18.329 132.356,18.243 132.094,18.138 132.029 C 18.033 131.964,17.947 131.658,17.947 131.349 C 17.947 131.040,17.862 130.788,17.757 130.788 C 17.652 130.788,17.566 130.578,17.566 130.322 C 17.566 130.065,17.480 129.802,17.375 129.737 C 17.270 129.673,17.184 129.453,17.184 129.249 C 17.184 129.045,17.098 128.878,16.993 128.878 C 16.888 128.878,16.802 128.626,16.802 128.317 C 16.802 128.008,16.716 127.702,16.611 127.637 C 16.506 127.572,16.420 127.315,16.420 127.064 C 16.420 126.814,16.344 126.562,16.250 126.505 C 16.157 126.447,16.032 126.120,15.973 125.777 C 15.711 124.264,15.592 123.811,15.427 123.705 C 15.330 123.642,15.243 123.312,15.233 122.971 C 15.223 122.631,15.100 122.308,14.959 122.253 C 14.798 122.192,14.702 121.845,14.702 121.332 C 14.702 120.879,14.604 120.477,14.485 120.437 C 14.349 120.392,14.279 119.892,14.297 119.085 C 14.313 118.330,14.245 117.804,14.131 117.804 C 14.023 117.804,13.938 117.308,13.938 116.670 C 13.938 116.046,13.852 115.483,13.747 115.418 C 13.637 115.350,13.556 114.339,13.556 113.036 C 13.556 111.760,13.476 110.744,13.373 110.708 C 13.105 110.615,13.081 103.993,13.348 103.904 C 13.462 103.866,13.556 103.665,13.556 103.457 C 13.556 103.211,13.473 103.127,13.317 103.215 C 13.126 103.323,13.126 103.298,13.317 103.092 C 13.471 102.927,13.556 102.237,13.556 101.166 C 13.556 100.248,13.642 99.444,13.747 99.379 C 14.038 99.199,13.991 98.277,13.699 98.442 C 13.508 98.549,13.508 98.525,13.699 98.319 C 13.831 98.178,13.938 97.779,13.938 97.432 C 13.938 97.085,14.024 96.802,14.129 96.802 C 14.236 96.802,14.320 96.265,14.320 95.572 C 14.320 94.896,14.406 94.289,14.511 94.224 C 14.778 94.059,14.749 93.301,14.463 92.993 C 14.332 92.852,14.314 92.786,14.424 92.847 C 14.762 93.034,15.057 92.719,15.176 92.045 C 15.238 91.692,15.372 91.249,15.473 91.060 C 15.574 90.872,15.656 90.502,15.656 90.239 C 15.656 89.975,15.742 89.707,15.847 89.642 C 15.952 89.577,16.038 89.313,16.038 89.055 C 16.038 88.798,16.114 88.438,16.206 88.255 C 16.298 88.073,16.475 87.580,16.600 87.160 C 16.832 86.381,17.095 85.704,17.397 85.110 C 17.490 84.928,17.566 84.611,17.566 84.405 C 17.566 84.200,17.652 83.979,17.757 83.914 C 17.862 83.849,17.947 83.586,17.947 83.330 C 17.947 83.074,18.033 82.864,18.138 82.864 C 18.243 82.864,18.329 82.649,18.329 82.387 C 18.329 82.124,18.415 81.909,18.520 81.909 C 18.625 81.909,18.711 81.743,18.711 81.539 C 18.711 81.335,18.797 81.115,18.902 81.050 C 19.007 80.985,19.093 80.765,19.093 80.562 C 19.093 80.358,19.179 80.191,19.284 80.191 C 19.389 80.191,19.475 80.071,19.475 79.924 C 19.475 79.777,19.733 79.167,20.048 78.568 C 20.363 77.969,20.621 77.366,20.621 77.228 C 20.621 77.090,20.700 76.948,20.797 76.913 C 20.894 76.878,21.002 76.721,21.036 76.563 C 21.070 76.406,21.147 76.234,21.207 76.181 C 21.326 76.077,23.310 72.856,23.912 71.790 C 24.119 71.422,24.375 71.015,24.481 70.885 C 24.586 70.756,24.621 70.515,24.558 70.351 C 24.489 70.170,24.522 70.101,24.643 70.175 C 24.851 70.303,25.775 69.358,25.775 69.016 C 25.776 68.908,25.947 68.696,26.158 68.544 C 26.368 68.393,26.539 68.176,26.539 68.062 C 26.539 67.948,26.819 67.543,27.160 67.162 C 27.501 66.781,27.967 66.227,28.196 65.931 C 28.424 65.636,28.925 65.050,29.308 64.630 C 29.691 64.210,30.234 63.566,30.515 63.200 C 31.165 62.352,33.586 59.952,35.042 58.711 C 35.658 58.186,36.529 57.391,36.978 56.945 C 37.427 56.499,37.870 56.134,37.962 56.134 C 38.054 56.134,38.399 55.876,38.729 55.561 C 39.059 55.246,39.393 54.988,39.473 54.988 C 39.553 54.988,39.845 54.794,40.122 54.558 C 41.241 53.604,44.576 51.360,44.875 51.360 C 44.977 51.360,45.060 51.274,45.060 51.169 C 45.060 51.064,45.172 50.979,45.310 50.979 C 45.448 50.979,45.745 50.807,45.970 50.597 C 46.196 50.387,46.478 50.215,46.597 50.215 C 46.717 50.215,47.043 50.060,47.321 49.871 C 47.801 49.545,50.219 48.343,51.801 47.644 C 52.440 47.361,52.498 47.283,52.279 47.002 C 52.055 46.716,52.063 46.710,52.361 46.943 C 52.646 47.166,52.810 47.150,53.507 46.828 C 53.954 46.622,54.964 46.214,55.752 45.922 C 56.539 45.629,57.265 45.316,57.365 45.225 C 57.465 45.134,57.702 45.060,57.893 45.060 C 58.083 45.060,58.431 44.960,58.666 44.839 C 59.599 44.357,59.773 44.296,60.225 44.296 C 60.483 44.296,60.747 44.210,60.811 44.105 C 60.876 44.000,61.220 43.914,61.575 43.914 C 61.930 43.914,62.274 43.828,62.339 43.723 C 62.404 43.618,62.747 43.532,63.103 43.532 C 63.458 43.532,63.801 43.446,63.866 43.341 C 63.931 43.236,64.323 43.150,64.737 43.150 C 65.151 43.150,65.489 43.064,65.489 42.959 C 65.489 42.854,65.957 42.768,66.528 42.768 C 67.099 42.768,67.620 42.683,67.685 42.578 C 67.750 42.473,68.253 42.387,68.804 42.387 C 69.354 42.387,69.886 42.308,69.986 42.213 C 70.359 41.854,72.785 41.771,85.148 41.695 C 93.125 41.646,97.908 41.548,98.027 41.429 C 98.130 41.326,98.479 41.241,98.801 41.241 C 100.391 41.241,101.907 39.090,101.922 36.814 L 101.933 35.158 100.934 34.118 C 100.217 33.372,99.793 33.079,99.429 33.079 C 99.151 33.079,98.783 32.939,98.612 32.768 C 98.330 32.486,97.317 32.464,87.862 32.534 C 75.855 32.622,75.733 32.622,74.855 32.601 C 74.494 32.593,74.164 32.686,74.124 32.808 C 74.073 32.959,73.415 33.031,72.099 33.031 C 70.976 33.031,70.062 33.117,69.945 33.234 C 69.834 33.345,69.174 33.437,68.479 33.437 C 67.784 33.437,67.166 33.517,67.105 33.616 C 67.044 33.714,66.527 33.795,65.955 33.795 C 65.384 33.795,64.916 33.881,64.916 33.986 C 64.916 34.091,64.487 34.177,63.962 34.177 C 63.437 34.177,63.007 34.263,63.007 34.368 C 63.007 34.473,62.621 34.558,62.148 34.558 C 61.675 34.558,61.289 34.644,61.289 34.749 C 61.289 34.854,60.945 34.940,60.525 34.940 C 59.798 34.940,59.490 35.195,60.000 35.374 C 60.131 35.420,59.788 35.417,59.236 35.366 C 58.565 35.304,58.234 35.345,58.234 35.489 C 58.234 35.613,57.909 35.704,57.470 35.704 C 57.050 35.704,56.706 35.790,56.706 35.895 C 56.706 36.000,56.449 36.086,56.134 36.086 C 55.819 36.086,55.561 36.151,55.561 36.230 C 55.561 36.386,54.217 36.850,53.766 36.850 C 53.616 36.850,53.464 36.935,53.429 37.039 C 53.394 37.143,53.129 37.248,52.840 37.272 C 52.551 37.295,52.315 37.361,52.315 37.417 C 52.315 37.538,51.283 38.012,50.899 38.069 C 50.754 38.090,50.498 38.222,50.330 38.361 C 50.161 38.501,50.024 38.551,50.024 38.473 C 50.024 38.394,49.896 38.437,49.740 38.566 C 49.583 38.696,49.495 38.866,49.543 38.944 C 49.591 39.022,49.418 39.045,49.159 38.996 C 48.885 38.943,48.687 38.995,48.687 39.119 C 48.687 39.236,48.430 39.332,48.115 39.332 C 47.800 39.332,47.542 39.418,47.542 39.523 C 47.542 39.628,47.370 39.714,47.160 39.714 C 46.950 39.714,46.778 39.800,46.778 39.905 C 46.778 40.010,46.606 40.095,46.396 40.095 C 46.186 40.095,46.014 40.181,46.014 40.286 C 46.014 40.391,45.842 40.477,45.632 40.477 C 45.422 40.477,45.251 40.563,45.251 40.668 C 45.251 40.773,45.079 40.859,44.869 40.859 C 44.659 40.859,44.487 40.929,44.487 41.014 C 44.487 41.100,44.186 41.288,43.819 41.432 C 43.451 41.576,43.150 41.764,43.150 41.849 C 43.150 41.935,42.979 42.005,42.768 42.005 C 42.558 42.005,42.387 42.091,42.387 42.196 C 42.387 42.301,42.215 42.387,42.005 42.387 C 41.795 42.387,41.623 42.473,41.623 42.578 C 41.623 42.683,41.470 42.768,41.283 42.768 C 41.096 42.768,40.820 42.940,40.668 43.150 C 40.517 43.360,40.261 43.532,40.099 43.532 C 39.751 43.532,39.233 44.271,39.297 44.678 C 39.327 44.873,39.272 44.852,39.126 44.613 C 38.922 44.278,38.887 44.283,38.406 44.717 C 38.127 44.968,37.663 45.291,37.375 45.435 C 37.086 45.579,36.850 45.768,36.850 45.856 C 36.850 45.943,36.697 46.014,36.510 46.014 C 36.323 46.014,36.046 46.186,35.895 46.396 C 35.744 46.606,35.501 46.778,35.357 46.778 C 35.212 46.778,34.853 47.036,34.558 47.351 C 34.264 47.666,33.918 47.924,33.788 47.924 C 33.659 47.924,33.414 48.078,33.244 48.267 C 33.075 48.456,32.635 48.815,32.267 49.066 C 31.900 49.316,30.981 50.150,30.226 50.918 C 29.471 51.686,28.756 52.315,28.637 52.315 C 28.312 52.315,27.835 52.858,27.969 53.075 C 28.039 53.188,27.957 53.216,27.768 53.143 C 27.515 53.046,27.475 53.101,27.575 53.416 C 27.644 53.633,27.612 53.865,27.504 53.932 C 27.387 54.004,27.354 53.933,27.421 53.757 C 27.484 53.594,27.469 53.461,27.389 53.461 C 27.163 53.461,23.866 56.869,23.866 57.103 C 23.866 57.216,23.527 57.636,23.111 58.035 C 22.696 58.434,22.410 58.814,22.475 58.879 C 22.540 58.944,22.489 58.998,22.362 58.998 C 22.025 58.998,21.193 59.883,21.193 60.241 C 21.193 60.424,21.282 60.493,21.414 60.411 C 21.547 60.329,21.582 60.359,21.503 60.487 C 21.431 60.604,21.260 60.656,21.122 60.603 C 20.719 60.449,20.290 61.078,20.633 61.321 C 20.865 61.486,20.862 61.502,20.614 61.424 C 20.219 61.301,19.524 61.890,19.584 62.297 C 19.612 62.485,19.508 62.625,19.340 62.625 C 19.136 62.625,19.081 62.748,19.156 63.035 C 19.232 63.328,19.204 63.385,19.056 63.238 C 18.818 62.999,18.329 63.384,18.329 63.811 C 18.329 63.952,18.158 64.192,17.947 64.344 C 17.737 64.495,17.566 64.707,17.565 64.815 C 17.565 64.924,17.353 65.259,17.094 65.560 C 16.834 65.862,16.571 66.270,16.508 66.467 C 16.446 66.664,16.314 66.826,16.216 66.826 C 16.118 66.826,16.038 66.979,16.038 67.165 C 16.038 67.352,15.866 67.629,15.656 67.780 C 15.446 67.932,15.274 68.212,15.274 68.404 C 15.274 68.596,15.058 68.969,14.793 69.233 C 14.529 69.498,14.362 69.795,14.423 69.893 C 14.484 69.991,14.399 70.072,14.236 70.072 C 14.065 70.072,13.938 70.235,13.938 70.453 C 13.938 70.663,13.852 70.835,13.747 70.835 C 13.642 70.835,13.556 71.000,13.556 71.201 C 13.556 71.403,13.471 71.596,13.367 71.631 C 13.263 71.666,13.159 71.925,13.135 72.206 C 13.112 72.487,13.012 72.667,12.913 72.606 C 12.811 72.542,12.777 72.666,12.836 72.891 C 12.915 73.192,12.869 73.262,12.647 73.176 C 12.416 73.088,12.375 73.172,12.451 73.573 C 12.518 73.922,12.467 74.081,12.289 74.081 C 12.146 74.081,12.029 74.253,12.029 74.463 C 12.029 74.673,11.943 74.845,11.838 74.845 C 11.733 74.845,11.647 75.017,11.647 75.227 C 11.647 75.437,11.561 75.609,11.456 75.609 C 11.351 75.609,11.265 75.780,11.265 75.990 C 11.265 76.200,11.179 76.372,11.074 76.372 C 10.969 76.372,10.883 76.544,10.883 76.754 C 10.883 76.964,10.797 77.136,10.692 77.136 C 10.587 77.136,10.501 77.308,10.501 77.518 C 10.501 77.728,10.415 77.900,10.310 77.900 C 10.205 77.900,10.119 78.140,10.119 78.434 C 10.119 78.728,10.020 79.068,9.898 79.190 C 9.731 79.357,9.733 79.478,9.905 79.685 C 10.089 79.907,10.067 79.955,9.792 79.932 C 9.540 79.912,9.436 80.066,9.391 80.525 C 9.358 80.866,9.251 81.146,9.153 81.146 C 9.054 81.146,8.974 81.298,8.974 81.485 C 8.974 81.672,8.862 81.994,8.726 82.201 C 8.589 82.408,8.491 82.771,8.509 83.007 C 8.527 83.258,8.431 83.437,8.279 83.437 C 8.117 83.437,8.019 83.653,8.019 84.010 C 8.019 84.325,7.933 84.582,7.828 84.582 C 7.723 84.582,7.637 84.835,7.637 85.144 C 7.637 85.453,7.551 85.758,7.446 85.823 C 7.341 85.888,7.255 86.194,7.255 86.503 C 7.255 86.812,7.169 87.064,7.064 87.064 C 6.959 87.064,6.874 87.408,6.874 87.828 C 6.874 88.248,6.788 88.592,6.683 88.592 C 6.578 88.592,6.492 88.855,6.492 89.176 C 6.492 89.497,6.570 89.712,6.665 89.653 C 6.760 89.594,6.794 89.712,6.741 89.915 C 6.684 90.134,6.537 90.242,6.377 90.181 C 6.172 90.102,6.110 90.282,6.110 90.958 C 6.110 91.442,6.024 91.838,5.919 91.838 C 5.813 91.838,5.728 92.343,5.728 92.972 C 5.728 93.596,5.642 94.159,5.537 94.224 C 5.263 94.394,5.297 95.656,5.575 95.656 C 5.753 95.656,5.753 95.707,5.575 95.885 C 5.449 96.011,5.346 96.269,5.346 96.458 C 5.346 96.647,5.260 96.802,5.155 96.802 C 5.045 96.802,4.964 97.407,4.964 98.234 C 4.964 99.068,4.884 99.666,4.772 99.666 C 4.514 99.666,4.521 114.880,4.779 115.039 C 4.881 115.102,4.964 115.788,4.964 116.563 C 4.964 117.338,5.050 118.026,5.155 118.091 C 5.260 118.156,5.346 118.714,5.346 119.332 C 5.346 119.949,5.432 120.508,5.537 120.573 C 5.642 120.638,5.728 121.153,5.728 121.718 C 5.728 122.284,5.814 122.799,5.919 122.864 C 6.024 122.929,6.110 123.321,6.110 123.734 C 6.110 124.148,6.191 124.487,6.290 124.487 C 6.389 124.487,6.496 124.852,6.528 125.298 C 6.561 125.745,6.679 126.094,6.791 126.074 C 6.913 126.052,6.961 126.268,6.910 126.614 C 6.864 126.931,6.916 127.377,7.026 127.605 C 7.136 127.833,7.278 128.259,7.342 128.552 C 7.405 128.845,7.528 129.041,7.615 128.987 C 7.702 128.934,7.731 129.108,7.680 129.375 C 7.629 129.642,7.674 130.048,7.779 130.276 C 8.305 131.415,8.478 131.867,8.508 132.185 C 8.526 132.375,8.638 132.629,8.757 132.748 C 8.876 132.867,8.974 133.162,8.974 133.403 C 8.974 133.645,9.060 133.842,9.165 133.842 C 9.270 133.842,9.356 134.015,9.356 134.227 C 9.356 134.598,9.423 134.782,9.899 135.701 C 10.020 135.936,10.119 136.301,10.119 136.513 C 10.119 136.724,10.205 136.897,10.310 136.897 C 10.415 136.897,10.501 137.069,10.501 137.279 C 10.501 137.489,10.587 137.661,10.692 137.661 C 10.797 137.661,10.883 137.766,10.883 137.894 C 10.883 138.511,14.169 144.751,14.440 144.647 C 14.602 144.585,14.671 144.621,14.602 144.732 C 14.467 144.951,14.908 146.062,15.130 146.062 C 15.210 146.062,15.274 146.215,15.274 146.402 C 15.274 146.589,15.446 146.865,15.656 147.017 C 15.866 147.168,16.038 147.445,16.038 147.632 C 16.038 147.818,16.124 147.971,16.229 147.971 C 16.334 147.971,16.420 148.100,16.420 148.258 C 16.420 148.415,16.506 148.544,16.611 148.544 C 16.716 148.544,16.802 148.657,16.802 148.795 C 16.802 148.932,16.952 149.216,17.136 149.425 C 17.320 149.635,17.556 149.940,17.661 150.103 C 18.528 151.452,19.711 153.030,20.497 153.890 C 20.834 154.258,21.320 154.859,21.578 155.227 C 21.837 155.594,22.479 156.333,23.005 156.868 C 23.531 157.403,24.446 158.408,25.038 159.101 C 25.629 159.795,26.166 160.309,26.231 160.245 C 26.296 160.180,26.348 160.231,26.348 160.359 C 26.348 160.779,27.260 161.531,27.627 161.412 C 27.894 161.325,27.912 161.343,27.704 161.490 C 27.440 161.679,28.125 162.433,29.289 163.235 C 29.510 163.387,29.819 163.648,29.976 163.815 C 30.134 163.982,30.692 164.457,31.217 164.870 C 31.742 165.283,32.521 165.924,32.947 166.295 C 34.256 167.433,34.628 167.726,35.613 168.397 C 36.136 168.753,36.606 169.093,36.659 169.152 C 36.711 169.212,36.990 169.383,37.279 169.531 C 37.568 169.680,37.804 169.873,37.804 169.961 C 37.804 170.048,37.957 170.119,38.144 170.119 C 38.331 170.119,38.608 170.291,38.759 170.501 C 38.910 170.711,39.115 170.883,39.213 170.883 C 39.311 170.883,39.657 171.085,39.982 171.332 C 40.867 172.005,45.784 174.589,48.258 175.680 C 48.704 175.877,49.434 176.210,49.881 176.420 C 51.252 177.064,54.108 178.138,54.450 178.138 C 54.629 178.138,54.828 178.224,54.893 178.329 C 54.958 178.434,55.220 178.520,55.477 178.520 C 55.733 178.520,55.943 178.606,55.943 178.711 C 55.943 178.816,56.152 178.902,56.409 178.902 C 56.665 178.902,56.928 178.988,56.993 179.093 C 57.058 179.198,57.358 179.284,57.661 179.284 C 57.964 179.284,58.264 179.370,58.329 179.475 C 58.394 179.580,58.738 179.666,59.093 179.666 C 59.448 179.666,59.792 179.752,59.857 179.857 C 59.922 179.962,60.313 180.048,60.727 180.048 C 61.141 180.048,61.480 180.134,61.480 180.239 C 61.480 180.344,61.823 180.430,62.243 180.430 C 62.663 180.430,63.007 180.516,63.007 180.621 C 63.007 180.726,63.389 180.811,63.855 180.811 C 64.321 180.811,64.756 180.897,64.821 181.002 C 64.886 181.107,65.492 181.193,66.169 181.193 C 66.861 181.193,67.399 181.277,67.399 181.384 C 67.399 181.494,67.999 181.575,68.819 181.575 C 69.601 181.575,70.285 181.648,70.340 181.738 C 70.735 182.376,88.019 182.374,88.019 181.737 C 88.019 181.648,88.572 181.575,89.249 181.575 C 89.925 181.575,90.532 181.489,90.597 181.384 C 90.662 181.279,91.220 181.193,91.838 181.193 C 92.455 181.193,93.014 181.107,93.079 181.002 C 93.144 180.897,93.616 180.811,94.129 180.811 C 94.642 180.811,95.114 180.726,95.179 180.621 C 95.244 180.516,95.631 180.430,96.038 180.430 C 96.446 180.430,96.832 180.344,96.897 180.239 C 96.962 180.134,97.349 180.048,97.757 180.048 C 98.164 180.048,98.551 179.962,98.616 179.857 C 98.681 179.752,99.012 179.666,99.353 179.666 C 99.693 179.666,100.053 179.586,100.153 179.489 C 100.253 179.391,100.635 179.284,101.002 179.250 C 101.541 179.200,101.662 179.114,101.628 178.807 C 101.605 178.597,101.634 178.532,101.692 178.663 C 101.819 178.951,102.394 178.973,102.914 178.711 C 103.123 178.606,103.464 178.434,103.673 178.329 C 103.881 178.224,104.183 178.138,104.344 178.138 C 104.504 178.138,104.784 178.058,104.967 177.960 C 105.149 177.861,105.943 177.541,106.730 177.248 C 107.518 176.954,108.191 176.648,108.226 176.567 C 108.261 176.486,108.454 176.420,108.656 176.420 C 108.857 176.420,109.021 176.334,109.021 176.229 C 109.021 176.124,109.152 176.038,109.310 176.038 C 109.469 176.038,109.749 175.957,109.931 175.857 C 110.886 175.334,113.553 174.129,113.754 174.129 C 113.881 174.129,113.986 174.043,113.986 173.938 C 113.986 173.833,114.121 173.747,114.285 173.747 C 114.450 173.747,114.944 173.504,115.383 173.206 C 115.822 172.908,116.543 172.465,116.985 172.221 C 117.434 171.973,117.736 171.684,117.670 171.568 C 117.605 171.454,117.620 171.421,117.703 171.496 C 117.872 171.649,120.095 170.513,120.095 170.274 C 120.095 170.189,120.248 170.119,120.435 170.119 C 120.622 170.119,120.899 169.947,121.050 169.737 C 121.201 169.527,121.423 169.356,121.541 169.356 C 121.660 169.356,122.027 169.098,122.357 168.783 C 122.686 168.468,123.026 168.210,123.113 168.210 C 123.199 168.210,123.437 168.060,123.642 167.876 C 123.847 167.692,124.661 167.052,125.452 166.454 C 127.201 165.131,130.330 162.156,130.258 161.886 C 130.229 161.778,130.290 161.743,130.395 161.807 C 130.647 161.963,131.764 160.954,131.612 160.707 C 131.546 160.601,131.582 160.569,131.692 160.637 C 131.802 160.705,132.207 160.396,132.592 159.951 C 132.978 159.505,133.595 158.811,133.964 158.407 C 134.332 158.003,134.588 157.627,134.531 157.570 C 134.475 157.514,134.520 157.298,134.631 157.090 C 134.773 156.824,134.892 156.773,135.035 156.916 C 135.280 157.160,136.570 155.852,136.384 155.549 C 136.319 155.445,136.360 155.417,136.475 155.488 C 136.590 155.559,136.923 155.311,137.220 154.931 C 137.515 154.554,137.950 154.015,138.186 153.734 C 138.422 153.452,138.615 153.115,138.616 152.983 C 138.616 152.852,138.687 152.745,138.774 152.745 C 138.862 152.745,139.054 152.508,139.203 152.220 C 139.351 151.931,139.607 151.566,139.772 151.408 C 139.937 151.251,140.345 150.720,140.680 150.229 C 141.014 149.738,141.398 149.223,141.532 149.084 C 141.923 148.681,142.418 147.528,142.295 147.311 C 142.233 147.202,142.253 147.176,142.339 147.254 C 142.501 147.401,143.389 146.239,143.389 145.881 C 143.389 145.771,143.465 145.680,143.558 145.680 C 143.650 145.680,143.776 145.530,143.836 145.346 C 143.896 145.162,144.210 144.582,144.535 144.057 C 144.859 143.532,145.173 142.952,145.234 142.768 C 145.294 142.585,145.419 142.434,145.512 142.434 C 145.604 142.434,145.680 142.263,145.680 142.053 C 145.680 141.842,145.766 141.671,145.871 141.671 C 145.976 141.671,146.062 141.506,146.062 141.305 C 146.062 141.103,146.129 140.910,146.210 140.875 C 146.413 140.788,147.780 138.046,147.780 137.727 C 147.780 137.586,147.866 137.470,147.971 137.470 C 148.076 137.470,148.162 137.298,148.162 137.088 C 148.162 136.878,148.248 136.706,148.353 136.706 C 148.458 136.706,148.544 136.487,148.544 136.218 C 148.544 135.911,148.466 135.778,148.334 135.859 C 148.199 135.943,148.208 135.828,148.360 135.536 C 148.690 134.902,148.806 134.817,148.650 135.322 C 148.571 135.582,148.599 135.752,148.722 135.752 C 148.834 135.752,148.926 135.494,148.926 135.179 C 148.926 134.864,149.012 134.606,149.117 134.606 C 149.222 134.606,149.308 134.396,149.308 134.140 C 149.308 133.884,149.394 133.621,149.499 133.556 C 149.604 133.491,149.690 133.233,149.690 132.983 C 149.690 132.733,149.776 132.475,149.881 132.411 C 149.986 132.346,150.072 132.083,150.072 131.826 C 150.072 131.570,150.168 131.360,150.285 131.360 C 150.409 131.360,150.460 131.162,150.407 130.884 C 150.355 130.613,150.428 130.315,150.576 130.193 C 150.718 130.074,150.835 129.730,150.835 129.428 C 150.835 129.126,150.921 128.878,151.026 128.878 C 151.131 128.878,151.217 128.540,151.217 128.126 C 151.217 127.712,151.303 127.320,151.408 127.255 C 151.513 127.190,151.599 126.847,151.599 126.492 C 151.599 126.136,151.685 125.793,151.790 125.728 C 151.895 125.663,151.981 125.331,151.981 124.991 C 151.981 124.651,152.077 124.276,152.195 124.159 C 152.459 123.894,152.754 122.633,152.876 121.241 C 152.927 120.663,153.048 120.109,153.143 120.010 C 153.239 119.910,153.317 119.292,153.317 118.637 C 153.317 117.981,153.403 117.392,153.508 117.327 C 153.613 117.262,153.699 116.661,153.699 115.990 C 153.699 115.320,153.785 114.719,153.889 114.655 C 154.013 114.578,154.079 98.427,154.080 67.547 C 154.082 41.702,154.104 20.536,154.130 20.511 C 154.155 20.487,154.907 21.145,155.800 21.973 C 156.692 22.801,157.527 23.441,157.655 23.395 C 157.783 23.348,157.947 23.406,158.019 23.522 C 158.098 23.651,158.063 23.681,157.929 23.598 C 157.423 23.285,157.778 23.765,158.807 24.784 C 159.411 25.383,160.133 26.173,160.412 26.540 C 161.348 27.771,164.195 30.575,164.388 30.456 C 164.498 30.388,164.530 30.463,164.464 30.634 C 164.402 30.797,164.446 30.931,164.562 30.931 C 164.678 30.931,164.773 31.051,164.773 31.198 C 164.773 31.345,165.203 31.904,165.728 32.440 C 166.253 32.976,166.685 33.479,166.687 33.557 C 166.689 33.635,166.969 34.010,167.308 34.390 C 167.945 35.104,168.972 36.372,169.198 36.721 C 169.283 36.853,169.444 36.828,169.675 36.646 C 169.993 36.397,170.001 36.401,169.767 36.700 C 169.504 37.036,169.870 37.783,170.684 38.568 C 170.848 38.726,171.102 39.091,171.251 39.379 C 171.399 39.668,171.592 39.905,171.679 39.905 C 171.766 39.905,171.838 40.024,171.838 40.169 C 171.838 40.495,173.367 42.005,173.697 42.005 C 173.830 42.005,173.938 42.091,173.938 42.196 C 173.938 42.301,174.197 42.387,174.513 42.387 C 174.830 42.387,175.259 42.493,175.468 42.623 C 175.770 42.812,175.925 42.812,176.227 42.623 C 176.435 42.493,176.784 42.387,177.003 42.387 C 177.775 42.387,179.012 41.356,179.692 40.144 C 180.087 39.440,180.224 36.086,179.857 36.086 C 179.752 36.086,179.666 35.951,179.666 35.786 C 179.666 35.446,179.221 34.940,178.922 34.940 C 178.813 34.940,178.774 34.809,178.835 34.648 C 178.900 34.480,178.776 34.208,178.543 34.005 C 178.320 33.812,178.138 33.545,178.138 33.411 C 178.138 33.277,177.881 32.922,177.566 32.620 C 177.251 32.319,176.993 31.996,176.993 31.901 C 176.993 31.806,176.520 31.244,175.943 30.653 C 175.365 30.061,174.893 29.446,174.893 29.286 C 174.893 29.083,174.778 29.032,174.511 29.117 C 174.283 29.189,174.129 29.151,174.129 29.023 C 174.129 28.905,174.215 28.861,174.320 28.926 C 174.756 29.195,174.460 28.752,173.747 28.067 C 173.327 27.663,172.983 27.228,172.983 27.099 C 172.983 26.970,172.687 26.576,172.324 26.225 C 171.962 25.873,171.702 25.585,171.746 25.585 C 171.867 25.585,170.784 24.397,168.974 22.542 C 168.081 21.628,167.136 20.585,166.874 20.225 C 165.978 18.996,162.231 15.359,162.787 16.259 C 162.872 16.396,162.839 16.427,162.699 16.341 C 162.576 16.265,162.526 16.122,162.587 16.024 C 162.735 15.784,162.154 15.219,161.913 15.368 C 161.808 15.432,161.766 15.372,161.819 15.233 C 161.872 15.095,161.728 14.854,161.498 14.698 C 161.268 14.543,160.585 13.943,159.980 13.365 C 158.286 11.748,157.719 11.265,157.515 11.265 C 157.412 11.265,156.973 10.921,156.540 10.501 C 156.108 10.081,155.654 9.737,155.532 9.737 C 155.411 9.737,155.187 9.566,155.036 9.356 C 154.884 9.146,154.615 8.974,154.437 8.974 C 154.259 8.974,154.084 8.894,154.049 8.797 C 154.014 8.700,153.857 8.593,153.699 8.558 C 153.542 8.524,153.357 8.420,153.289 8.326 C 152.882 7.764,147.399 7.312,147.399 7.840 M153.842 85.378 C 153.815 97.385,153.793 87.618,153.793 63.675 C 153.793 39.733,153.815 29.910,153.842 41.846 C 153.870 53.783,153.870 73.372,153.842 85.378 M81.527 65.489 C 81.527 65.594,81.398 65.680,81.239 65.680 C 80.865 65.680,79.789 66.639,79.922 66.854 C 79.978 66.945,79.895 67.069,79.737 67.130 C 79.499 67.221,79.448 67.748,79.438 70.187 C 79.424 73.604,79.204 74.296,78.091 74.421 C 77.828 74.450,77.585 74.558,77.550 74.660 C 77.515 74.761,77.235 74.845,76.929 74.845 C 76.623 74.845,76.372 74.931,76.372 75.036 C 76.372 75.141,76.200 75.227,75.990 75.227 C 75.780 75.227,75.609 75.313,75.609 75.418 C 75.609 75.523,75.518 75.609,75.406 75.609 C 75.295 75.609,75.257 75.523,75.322 75.418 C 75.387 75.313,75.306 75.227,75.143 75.227 C 74.979 75.227,74.845 75.313,74.845 75.418 C 74.845 75.523,74.630 75.609,74.368 75.609 C 74.105 75.609,73.890 75.695,73.890 75.800 C 73.890 75.905,73.723 75.990,73.518 75.990 C 73.313 75.990,73.077 76.098,72.993 76.229 C 72.909 76.360,72.754 76.477,72.649 76.489 C 72.201 76.537,71.599 76.812,71.599 76.967 C 71.599 77.060,71.483 77.136,71.341 77.136 C 71.199 77.136,70.813 77.394,70.484 77.709 C 70.154 78.024,69.815 78.282,69.731 78.282 C 69.647 78.282,69.260 78.582,68.870 78.950 C 68.480 79.317,68.248 79.618,68.353 79.618 C 68.458 79.618,68.544 79.710,68.544 79.822 C 68.544 79.937,68.382 79.974,68.172 79.908 C 67.886 79.817,67.725 79.935,67.476 80.417 C 67.297 80.763,66.906 81.274,66.606 81.554 C 66.307 81.834,66.062 82.200,66.062 82.368 C 66.062 82.536,65.976 82.673,65.871 82.673 C 65.766 82.673,65.680 82.845,65.680 83.055 C 65.680 83.265,65.594 83.437,65.489 83.437 C 65.384 83.437,65.298 83.609,65.298 83.819 C 65.298 84.029,65.212 84.200,65.107 84.200 C 65.002 84.200,64.916 84.539,64.916 84.953 C 64.916 85.367,64.831 85.758,64.726 85.823 C 64.621 85.888,64.535 86.280,64.535 86.694 C 64.535 87.108,64.451 87.446,64.348 87.446 C 64.098 87.446,64.099 94.264,64.349 94.419 C 64.451 94.482,64.535 94.910,64.535 95.370 C 64.535 95.830,64.621 96.260,64.726 96.325 C 64.831 96.389,64.916 96.683,64.916 96.978 C 64.916 98.074,67.241 101.896,67.935 101.941 C 68.072 101.950,68.136 102.036,68.076 102.133 C 68.016 102.230,68.247 102.506,68.590 102.747 C 68.932 102.987,69.431 103.413,69.697 103.693 C 70.921 104.979,74.550 107.053,78.091 108.490 C 78.353 108.597,78.717 108.760,78.900 108.853 C 79.082 108.946,79.404 109.021,79.616 109.021 C 79.827 109.021,80.000 109.107,80.000 109.212 C 80.000 109.317,80.173 109.403,80.384 109.403 C 80.596 109.403,80.940 109.489,81.148 109.594 C 81.357 109.699,81.698 109.871,81.907 109.976 C 82.115 110.081,82.417 110.167,82.578 110.167 C 82.738 110.167,83.018 110.246,83.201 110.342 C 84.374 110.959,85.784 111.491,85.961 111.382 C 86.082 111.307,86.114 111.342,86.038 111.466 C 85.869 111.739,86.784 112.345,87.086 112.159 C 87.227 112.071,87.264 112.098,87.183 112.229 C 87.110 112.349,87.285 112.590,87.583 112.781 C 89.092 113.747,89.705 114.561,90.713 116.945 C 90.993 117.609,91.017 121.399,90.740 121.292 C 90.586 121.233,90.501 121.378,90.501 121.698 C 90.501 121.972,90.415 122.196,90.310 122.196 C 90.205 122.196,90.119 122.368,90.119 122.578 C 90.119 122.788,90.033 122.959,89.928 122.959 C 89.823 122.959,89.737 123.091,89.737 123.252 C 89.737 123.609,88.511 124.869,88.163 124.869 C 88.025 124.869,87.789 125.041,87.637 125.251 C 87.476 125.475,87.143 125.632,86.831 125.632 C 86.540 125.632,86.301 125.718,86.301 125.823 C 86.301 125.928,86.000 126.014,85.632 126.014 C 85.225 126.014,84.964 126.107,84.964 126.253 C 84.965 126.541,79.563 126.481,79.459 126.191 C 79.424 126.094,79.145 126.014,78.839 126.014 C 78.532 126.014,78.282 125.928,78.282 125.823 C 78.282 125.718,78.110 125.632,77.900 125.632 C 77.690 125.632,77.518 125.547,77.518 125.442 C 77.518 125.337,77.388 125.251,77.230 125.251 C 77.071 125.251,76.672 124.993,76.342 124.678 C 76.013 124.363,75.658 124.105,75.555 124.105 C 75.452 124.105,75.211 123.925,75.021 123.706 C 74.830 123.486,74.584 123.362,74.473 123.430 C 74.352 123.505,74.272 123.360,74.272 123.066 C 74.272 122.797,74.186 122.578,74.081 122.578 C 73.976 122.578,73.890 122.406,73.890 122.196 C 73.890 121.986,73.804 121.814,73.699 121.814 C 73.594 121.814,73.508 121.599,73.508 121.337 C 73.508 121.074,73.422 120.859,73.317 120.859 C 73.212 120.859,73.126 120.516,73.126 120.095 C 73.126 119.675,73.041 119.332,72.936 119.332 C 72.831 119.332,72.745 119.160,72.745 118.950 C 72.745 118.740,72.659 118.568,72.554 118.568 C 72.449 118.568,72.363 118.435,72.363 118.273 C 72.363 117.891,71.512 117.041,71.130 117.041 C 70.968 117.041,70.835 116.955,70.835 116.850 C 70.835 116.745,70.700 116.659,70.535 116.659 C 70.370 116.659,70.118 116.542,69.976 116.399 C 69.644 116.067,65.782 116.099,65.444 116.436 C 65.322 116.559,65.108 116.659,64.969 116.659 C 64.618 116.659,63.007 118.301,63.007 118.658 C 63.007 118.819,62.928 118.950,62.831 118.950 C 62.547 118.950,62.420 119.934,62.585 120.859 C 62.674 121.354,62.662 121.927,62.557 122.212 C 62.422 122.577,62.456 122.869,62.691 123.339 C 62.865 123.687,63.007 124.133,63.007 124.328 C 63.007 124.523,63.087 124.832,63.184 125.015 C 63.281 125.197,63.410 125.502,63.469 125.692 C 63.532 125.895,63.669 125.982,63.799 125.901 C 63.942 125.813,63.969 125.848,63.874 126.001 C 63.718 126.255,64.483 127.924,64.756 127.924 C 64.844 127.924,64.916 128.042,64.916 128.187 C 64.916 128.513,66.876 130.561,67.780 131.181 C 68.148 131.433,68.642 131.830,68.878 132.063 C 69.468 132.647,70.576 133.146,70.956 133.000 C 71.220 132.899,71.232 132.927,71.030 133.170 C 70.827 133.414,70.851 133.461,71.183 133.461 C 71.399 133.461,71.630 133.547,71.695 133.652 C 71.759 133.757,71.979 133.842,72.183 133.842 C 72.387 133.842,72.554 133.928,72.554 134.033 C 72.554 134.138,72.763 134.224,73.020 134.224 C 73.276 134.224,73.539 134.310,73.604 134.415 C 73.669 134.520,73.914 134.606,74.150 134.606 C 74.385 134.606,74.659 134.686,74.759 134.782 C 74.938 134.957,76.654 135.371,77.452 135.433 C 77.678 135.451,77.829 135.521,77.787 135.589 C 77.745 135.656,77.839 135.761,77.996 135.821 C 78.153 135.881,78.282 136.105,78.282 136.319 C 78.282 136.532,78.368 136.706,78.473 136.706 C 78.590 136.706,78.663 137.666,78.663 139.202 C 78.663 141.149,78.726 141.760,78.946 141.980 C 79.101 142.135,79.338 142.408,79.473 142.587 C 80.462 143.896,85.286 143.536,85.346 142.148 C 85.351 142.043,85.523 141.742,85.728 141.480 C 86.150 140.941,86.231 140.033,85.871 139.888 C 85.680 139.811,85.680 139.788,85.871 139.776 C 86.045 139.765,86.110 139.253,86.110 137.894 C 86.110 136.207,86.149 136.000,86.515 135.746 C 86.738 135.592,87.017 135.379,87.136 135.274 C 87.254 135.169,87.566 135.075,87.828 135.064 C 88.597 135.033,90.211 134.592,91.504 134.059 C 91.792 133.940,92.222 133.769,92.458 133.679 C 93.736 133.191,95.739 132.057,96.305 131.500 C 96.542 131.266,96.988 130.859,97.295 130.597 C 98.157 129.859,99.129 128.518,98.978 128.274 C 98.895 128.139,98.928 128.108,99.065 128.193 C 99.543 128.488,101.193 125.505,101.193 124.344 C 101.193 124.003,101.279 123.723,101.384 123.723 C 101.489 123.723,101.575 123.337,101.575 122.864 C 101.575 122.391,101.660 122.005,101.763 122.005 C 102.013 122.005,102.009 115.186,101.759 115.032 C 101.658 114.969,101.575 114.579,101.575 114.165 C 101.575 113.751,101.489 113.413,101.384 113.413 C 101.279 113.413,101.193 113.060,101.193 112.629 C 101.193 112.051,101.126 111.870,100.937 111.943 C 100.750 112.015,100.706 111.908,100.774 111.550 C 100.846 111.172,100.803 111.084,100.583 111.168 C 100.367 111.251,100.319 111.167,100.386 110.818 C 100.437 110.554,100.383 110.358,100.261 110.358 C 100.144 110.358,100.048 110.205,100.048 110.017 C 100.048 109.503,96.474 105.585,96.005 105.585 C 95.897 105.585,95.569 105.327,95.274 105.012 C 94.980 104.697,94.633 104.439,94.503 104.439 C 94.373 104.439,94.152 104.289,94.013 104.105 C 93.860 103.904,93.757 103.865,93.753 104.008 C 93.750 104.138,93.501 103.988,93.201 103.674 C 92.901 103.360,92.514 103.103,92.342 103.103 C 92.170 103.103,92.029 103.017,92.029 102.912 C 92.029 102.807,91.857 102.721,91.647 102.721 C 91.437 102.721,91.265 102.635,91.265 102.530 C 91.265 102.425,91.093 102.339,90.883 102.339 C 90.673 102.339,90.501 102.253,90.501 102.148 C 90.501 102.043,90.329 101.957,90.119 101.957 C 89.909 101.957,89.737 101.871,89.737 101.766 C 89.737 101.661,89.566 101.575,89.356 101.575 C 89.146 101.575,88.974 101.489,88.974 101.384 C 88.974 101.279,88.807 101.193,88.603 101.193 C 88.399 101.193,88.179 101.107,88.115 101.002 C 88.050 100.897,87.829 100.811,87.623 100.811 C 87.418 100.811,87.058 100.712,86.823 100.591 C 85.904 100.116,85.720 100.048,85.349 100.048 C 85.137 100.048,84.964 99.962,84.964 99.857 C 84.964 99.752,84.797 99.666,84.594 99.666 C 84.390 99.666,84.170 99.580,84.105 99.475 C 84.040 99.370,83.777 99.284,83.521 99.284 C 83.265 99.284,83.055 99.198,83.055 99.093 C 83.055 98.988,82.883 98.902,82.673 98.902 C 82.463 98.902,82.291 98.816,82.291 98.711 C 82.291 98.606,82.043 98.520,81.739 98.520 C 81.399 98.520,81.139 98.398,81.064 98.202 C 80.976 97.972,80.884 97.942,80.734 98.092 C 80.456 98.370,79.997 98.177,80.128 97.836 C 80.187 97.681,80.116 97.566,79.961 97.566 C 79.812 97.566,79.506 97.394,79.280 97.184 C 79.055 96.974,78.757 96.802,78.618 96.802 C 78.479 96.802,78.242 96.630,78.091 96.420 C 77.939 96.210,77.707 96.038,77.573 96.038 C 77.230 96.038,76.562 95.430,76.686 95.230 C 76.743 95.138,76.610 94.907,76.390 94.717 C 76.170 94.526,75.990 94.230,75.990 94.059 C 75.990 93.887,75.905 93.747,75.800 93.747 C 75.695 93.747,75.609 93.537,75.609 93.281 C 75.609 93.025,75.523 92.762,75.418 92.697 C 75.181 92.550,75.161 88.334,75.395 87.873 C 75.488 87.691,75.678 87.284,75.818 86.969 C 75.958 86.654,76.214 86.181,76.387 85.919 C 76.560 85.656,76.679 85.297,76.651 85.121 C 76.619 84.913,76.695 84.836,76.868 84.902 C 77.016 84.959,77.136 84.923,77.136 84.822 C 77.136 84.622,79.121 83.620,80.204 83.273 C 81.044 83.004,84.325 82.984,84.487 83.246 C 84.552 83.351,84.815 83.437,85.071 83.437 C 85.327 83.437,85.537 83.523,85.537 83.628 C 85.537 83.733,85.709 83.819,85.919 83.819 C 86.129 83.819,86.301 83.890,86.301 83.977 C 86.301 84.065,86.536 84.258,86.824 84.407 C 87.743 84.882,88.990 86.345,89.294 87.303 C 89.352 87.487,89.476 87.637,89.569 87.637 C 89.662 87.637,89.737 87.890,89.737 88.199 C 89.737 88.508,89.823 88.813,89.928 88.878 C 90.033 88.943,90.119 89.190,90.119 89.427 C 90.119 92.702,95.249 95.290,98.399 93.604 C 99.569 92.977,99.922 92.670,99.764 92.414 C 99.699 92.310,99.758 92.266,99.895 92.317 C 100.181 92.425,100.972 91.348,101.102 90.673 C 101.150 90.422,101.276 90.187,101.382 90.152 C 101.636 90.067,101.638 87.064,101.384 87.064 C 101.279 87.064,101.193 86.812,101.193 86.503 C 101.193 86.194,101.107 85.888,101.002 85.823 C 100.897 85.758,100.811 85.453,100.811 85.144 C 100.811 84.835,100.726 84.582,100.621 84.582 C 100.516 84.582,100.430 84.325,100.430 84.010 C 100.430 83.695,100.344 83.437,100.239 83.437 C 100.134 83.437,100.048 83.265,100.048 83.055 C 100.048 82.845,99.962 82.673,99.857 82.673 C 99.752 82.673,99.666 82.553,99.666 82.407 C 99.666 82.260,99.453 81.938,99.192 81.691 C 98.931 81.443,98.716 81.170,98.715 81.084 C 98.709 80.813,98.191 80.394,98.035 80.534 C 97.953 80.608,97.942 80.571,98.010 80.451 C 98.161 80.188,97.690 79.755,97.470 79.954 C 97.384 80.032,97.375 79.989,97.450 79.858 C 97.625 79.554,96.684 78.596,96.389 78.778 C 96.250 78.864,96.222 78.829,96.313 78.683 C 96.458 78.447,95.550 77.519,95.173 77.518 C 95.065 77.518,94.853 77.346,94.702 77.136 C 94.550 76.926,94.274 76.754,94.087 76.754 C 93.900 76.754,93.747 76.668,93.747 76.563 C 93.747 76.458,93.575 76.372,93.365 76.372 C 93.155 76.372,92.983 76.286,92.983 76.181 C 92.983 76.076,92.720 75.990,92.399 75.990 C 92.058 75.990,91.864 75.911,91.933 75.800 C 91.998 75.695,91.874 75.609,91.658 75.609 C 91.442 75.609,91.265 75.523,91.265 75.418 C 91.265 75.313,91.007 75.227,90.692 75.227 C 90.377 75.227,90.119 75.141,90.119 75.036 C 90.119 74.931,89.776 74.845,89.356 74.845 C 88.873 74.845,88.591 74.757,88.589 74.606 C 88.587 74.447,88.524 74.463,88.401 74.654 C 88.240 74.903,88.215 74.899,88.213 74.627 C 88.211 74.454,88.091 74.267,87.945 74.211 C 87.283 73.957,87.064 72.949,87.064 70.147 C 87.064 68.170,86.999 67.375,86.825 67.265 C 86.694 67.181,86.465 66.876,86.316 66.587 C 86.167 66.298,85.907 66.062,85.738 66.062 C 85.569 66.062,85.312 65.898,85.168 65.698 C 84.874 65.291,81.527 65.099,81.527 65.489 M182.763 88.435 C 182.401 88.797,182.426 122.063,182.788 122.364 C 183.062 122.591,215.446 122.683,216.032 122.458 C 216.193 122.396,216.325 122.183,216.325 121.984 C 216.325 121.786,216.411 121.623,216.516 121.623 C 216.621 121.623,216.706 121.450,216.706 121.238 C 216.706 121.027,216.792 120.683,216.897 120.475 C 217.002 120.266,217.174 119.925,217.279 119.716 C 217.384 119.508,217.470 119.171,217.470 118.968 C 217.470 118.766,217.560 118.570,217.670 118.533 C 217.779 118.497,217.883 118.275,217.901 118.040 C 217.919 117.805,218.001 117.613,218.084 117.613 C 218.166 117.613,218.234 117.533,218.234 117.435 C 218.234 117.337,218.334 117.014,218.456 116.719 C 218.578 116.423,218.664 116.120,218.648 116.044 C 218.633 115.968,218.778 115.822,218.971 115.718 C 219.280 115.553,219.311 115.592,219.228 116.030 C 219.153 116.423,219.195 116.506,219.425 116.418 C 219.632 116.339,219.693 116.400,219.634 116.627 C 219.550 116.948,221.210 120.399,221.671 120.859 C 221.723 120.912,221.931 121.255,222.134 121.623 C 222.336 121.990,222.593 122.354,222.706 122.431 C 222.952 122.600,232.582 122.628,233.015 122.462 C 233.320 122.345,233.450 121.432,233.162 121.432 C 233.077 121.432,232.889 121.131,232.745 120.764 C 232.600 120.396,232.413 120.095,232.327 120.095 C 232.242 120.095,232.172 120.013,232.172 119.911 C 232.172 119.810,231.678 118.979,231.074 118.065 C 229.393 115.521,229.110 115.063,228.991 114.702 C 228.931 114.518,228.806 114.368,228.713 114.368 C 228.620 114.368,228.544 114.276,228.544 114.163 C 228.544 114.051,228.286 113.584,227.971 113.126 C 227.656 112.669,227.399 112.202,227.399 112.090 C 227.399 111.977,227.313 111.885,227.208 111.885 C 227.103 111.885,227.017 111.794,227.017 111.681 C 227.017 111.569,226.759 111.102,226.444 110.644 C 225.850 109.782,225.734 109.403,226.062 109.403 C 226.167 109.403,226.253 109.232,226.253 109.021 C 226.253 108.811,226.329 108.640,226.422 108.640 C 226.585 108.640,226.888 107.926,226.846 107.637 C 226.835 107.558,226.903 107.494,226.998 107.494 C 227.092 107.494,227.661 106.506,228.262 105.298 C 228.863 104.091,229.430 103.103,229.522 103.103 C 229.614 103.103,229.690 102.931,229.690 102.721 C 229.690 102.511,229.754 102.338,229.833 102.337 C 229.912 102.337,230.069 102.143,230.182 101.908 C 230.408 101.439,231.564 99.280,231.996 98.520 C 232.145 98.258,232.344 97.987,232.438 97.919 C 232.532 97.851,232.557 97.658,232.492 97.489 C 232.417 97.295,232.476 97.184,232.655 97.184 C 233.033 97.184,233.019 96.340,232.636 95.956 C 232.073 95.394,223.202 95.520,222.659 96.098 C 222.430 96.341,222.243 96.680,222.243 96.851 C 222.243 97.021,222.158 97.214,222.053 97.279 C 221.947 97.344,221.862 97.602,221.862 97.852 C 221.862 98.102,221.776 98.360,221.671 98.425 C 221.566 98.490,221.480 98.747,221.480 98.998 C 221.480 99.248,221.394 99.506,221.289 99.570 C 221.184 99.635,221.098 99.856,221.098 100.062 C 221.098 100.267,221.020 100.584,220.926 100.766 C 220.831 100.949,220.644 101.466,220.511 101.915 C 220.270 102.729,220.059 102.778,219.912 102.053 C 219.869 101.842,219.735 101.691,219.614 101.716 C 219.492 101.741,219.437 101.647,219.491 101.507 C 219.602 101.217,217.890 97.757,217.636 97.757 C 217.545 97.757,217.470 97.627,217.470 97.468 C 217.470 97.154,217.151 96.521,216.725 95.990 C 216.408 95.597,207.285 95.474,206.575 95.854 C 206.092 96.112,206.099 96.894,206.587 97.419 C 206.797 97.644,206.969 97.941,206.969 98.079 C 206.969 98.217,207.055 98.329,207.160 98.329 C 207.265 98.329,207.351 98.501,207.351 98.711 C 207.351 98.921,207.421 99.093,207.506 99.093 C 207.592 99.093,207.779 99.394,207.924 99.761 C 208.068 100.129,208.246 100.430,208.319 100.430 C 208.392 100.430,208.500 100.580,208.558 100.764 C 208.663 101.094,209.265 102.155,209.453 102.339 C 209.506 102.391,209.719 102.757,209.926 103.150 C 210.133 103.544,210.373 103.866,210.460 103.866 C 210.548 103.866,210.566 103.952,210.501 104.057 C 210.436 104.162,210.474 104.248,210.585 104.248 C 210.697 104.248,210.788 104.380,210.788 104.541 C 210.788 104.701,210.916 104.882,211.073 104.942 C 211.230 105.003,211.320 105.115,211.272 105.191 C 211.225 105.267,211.397 105.641,211.655 106.020 C 211.913 106.400,212.124 106.801,212.124 106.911 C 212.124 107.022,212.210 107.112,212.315 107.112 C 212.420 107.112,212.506 107.284,212.506 107.494 C 212.506 107.704,212.577 107.876,212.665 107.876 C 213.139 107.876,213.315 108.803,212.942 109.340 C 212.735 109.637,212.446 110.160,212.298 110.501 C 212.151 110.842,211.966 111.122,211.887 111.122 C 211.807 111.122,211.742 111.212,211.742 111.322 C 211.742 111.432,211.448 111.982,211.088 112.545 C 210.728 113.108,210.484 113.619,210.547 113.681 C 210.609 113.744,210.566 113.795,210.452 113.795 C 210.337 113.795,210.123 114.031,209.978 114.320 C 209.507 115.250,209.169 115.796,208.974 115.940 C 208.859 116.024,208.890 116.081,209.051 116.083 C 209.231 116.085,209.184 116.203,208.907 116.442 C 208.681 116.639,208.495 116.875,208.492 116.968 C 208.490 117.060,208.320 117.351,208.115 117.613 C 207.909 117.876,207.739 118.241,207.737 118.425 C 207.735 118.609,207.647 118.759,207.542 118.759 C 207.437 118.759,207.351 118.893,207.351 119.057 C 207.351 119.233,207.441 119.299,207.571 119.218 C 207.705 119.136,207.740 119.165,207.661 119.294 C 207.589 119.411,207.420 119.464,207.287 119.413 C 207.143 119.358,206.938 119.592,206.780 119.994 C 206.320 121.168,206.205 120.744,206.203 117.852 C 206.201 116.303,206.148 114.842,206.085 114.606 L 205.970 114.177 199.309 114.177 L 192.649 114.177 192.649 111.599 L 192.649 109.021 197.862 109.021 C 201.767 109.021,203.138 108.962,203.331 108.783 C 203.537 108.592,203.561 108.592,203.453 108.783 C 203.379 108.914,203.410 109.021,203.521 109.021 C 203.657 109.021,203.723 107.678,203.723 104.916 L 203.723 100.811 198.186 100.811 L 192.649 100.811 192.649 98.616 L 192.649 96.420 199.145 96.420 L 205.640 96.420 205.589 92.363 L 205.537 88.305 194.266 88.254 C 185.596 88.214,182.942 88.256,182.763 88.435 M205.202 94.081 C 205.167 95.000,205.138 94.248,205.138 92.411 C 205.138 90.573,205.167 89.821,205.202 90.740 C 205.237 91.659,205.237 93.162,205.202 94.081 M248.687 95.508 C 248.372 95.614,247.965 95.777,247.783 95.870 C 247.601 95.962,247.321 96.038,247.162 96.038 C 247.004 96.038,246.874 96.119,246.874 96.217 C 246.874 96.315,246.573 96.504,246.205 96.637 C 245.838 96.770,245.537 96.938,245.537 97.011 C 245.537 97.083,245.397 97.197,245.226 97.262 C 244.825 97.416,244.391 97.052,244.391 96.561 C 244.391 95.766,243.930 95.669,240.131 95.662 C 238.007 95.659,236.387 95.737,236.169 95.854 C 235.675 96.118,235.577 131.551,236.070 131.551 C 236.219 131.551,236.384 131.444,236.437 131.313 C 236.514 131.122,236.536 131.122,236.548 131.313 C 236.560 131.497,237.634 131.551,241.241 131.551 L 245.919 131.551 245.919 126.778 C 245.919 122.662,245.958 122.005,246.205 122.005 C 246.363 122.005,246.492 122.074,246.492 122.159 C 246.492 122.316,247.392 122.724,248.592 123.110 C 249.962 123.551,252.576 123.362,254.129 122.710 C 254.391 122.600,254.655 122.503,254.715 122.496 C 255.022 122.457,256.611 121.541,256.611 121.402 C 256.611 121.313,256.723 121.241,256.860 121.241 C 257.386 121.241,259.428 118.967,259.151 118.690 C 259.084 118.623,259.160 118.568,259.319 118.568 C 259.646 118.568,261.384 115.267,261.384 114.644 C 261.384 114.429,261.462 114.171,261.557 114.072 C 262.012 113.592,262.198 106.504,261.802 104.726 C 261.685 104.200,261.534 103.491,261.465 103.148 C 261.396 102.805,261.264 102.478,261.171 102.421 C 261.078 102.363,261.002 102.160,261.002 101.969 C 261.002 101.778,260.871 101.513,260.711 101.380 C 260.551 101.248,260.463 101.096,260.515 101.044 C 260.653 100.906,260.038 99.874,259.427 99.218 C 259.138 98.908,258.901 98.560,258.900 98.444 C 258.899 98.329,258.663 98.048,258.375 97.820 C 258.088 97.593,257.594 97.185,257.279 96.914 C 256.964 96.642,256.599 96.420,256.468 96.420 C 256.337 96.420,256.229 96.334,256.229 96.229 C 256.229 96.124,256.062 96.038,255.859 96.038 C 255.655 96.038,255.435 95.952,255.370 95.847 C 255.305 95.742,254.999 95.656,254.690 95.656 C 254.382 95.656,254.129 95.570,254.129 95.465 C 254.129 95.214,249.452 95.250,248.687 95.508 M274.463 95.465 C 274.398 95.570,274.177 95.656,273.971 95.656 C 273.443 95.656,272.076 96.103,272.076 96.276 C 272.076 96.355,271.905 96.420,271.695 96.420 C 271.484 96.420,271.313 96.496,271.313 96.589 C 271.313 96.681,271.132 96.805,270.912 96.862 C 270.656 96.929,270.563 97.052,270.655 97.200 C 270.746 97.347,270.719 97.385,270.584 97.301 C 270.346 97.154,269.403 97.696,269.403 97.981 C 269.403 98.080,269.503 98.100,269.624 98.025 C 269.757 97.942,269.792 97.972,269.713 98.101 C 269.641 98.217,269.457 98.265,269.304 98.206 C 269.029 98.101,266.921 100.098,266.921 100.463 C 266.921 100.559,266.749 100.821,266.539 101.046 C 266.329 101.272,266.158 101.569,266.158 101.707 C 266.158 101.844,266.072 101.957,265.967 101.957 C 265.862 101.957,265.776 102.089,265.776 102.250 C 265.776 102.411,265.639 102.751,265.473 103.005 C 265.306 103.260,265.221 103.550,265.283 103.651 C 265.345 103.751,265.305 103.864,265.194 103.901 C 264.931 103.989,264.623 105.195,264.497 106.635 C 264.442 107.265,264.320 107.925,264.227 108.102 C 263.996 108.540,264.012 110.307,264.248 110.453 C 264.353 110.518,264.439 111.054,264.439 111.644 C 264.439 112.235,264.536 113.024,264.654 113.399 C 265.193 115.107,265.438 115.704,265.601 115.704 C 265.697 115.704,265.776 115.876,265.776 116.086 C 265.776 116.296,265.862 116.468,265.967 116.468 C 266.072 116.468,266.158 116.598,266.158 116.757 C 266.158 117.528,269.039 120.859,269.706 120.859 C 269.855 120.859,269.976 120.945,269.976 121.050 C 269.976 121.155,270.110 121.241,270.274 121.241 C 270.450 121.241,270.516 121.151,270.435 121.021 C 270.350 120.883,270.383 120.852,270.523 120.938 C 270.645 121.014,270.700 121.152,270.643 121.243 C 270.500 121.474,271.817 122.072,272.170 121.936 C 272.344 121.870,272.458 121.934,272.458 122.097 C 272.458 122.366,273.082 122.614,274.749 123.008 C 276.301 123.375,282.196 123.202,282.196 122.789 C 282.196 122.717,282.387 122.644,282.622 122.627 C 282.856 122.609,283.168 122.440,283.316 122.252 C 283.534 121.972,283.564 121.967,283.477 122.222 C 283.396 122.457,283.461 122.511,283.737 122.438 C 283.940 122.385,284.105 122.266,284.105 122.173 C 284.105 122.081,284.315 122.005,284.571 122.005 C 284.827 122.005,285.090 121.919,285.155 121.814 C 285.220 121.709,285.440 121.623,285.644 121.623 C 286.071 121.623,286.116 121.431,285.776 121.050 C 285.573 120.823,285.587 120.820,285.865 121.030 C 286.203 121.285,287.351 120.969,287.351 120.622 C 287.351 120.542,287.523 120.477,287.733 120.477 C 288.341 120.477,288.194 118.791,287.533 118.186 C 287.475 118.134,287.194 117.618,286.908 117.041 C 285.169 113.530,285.157 113.524,282.474 114.780 C 282.259 114.880,281.940 114.984,281.763 115.010 C 281.587 115.035,281.383 115.116,281.310 115.189 C 280.557 115.943,276.312 115.006,275.311 113.865 C 274.182 112.577,273.820 112.650,281.390 112.643 C 289.173 112.636,288.878 112.695,288.878 111.160 C 288.878 110.626,288.964 110.136,289.069 110.072 C 289.174 110.007,289.260 109.190,289.260 108.258 C 289.260 107.325,289.174 106.509,289.069 106.444 C 288.964 106.379,288.878 105.886,288.878 105.348 C 288.878 104.272,288.517 102.931,287.901 101.721 C 287.809 101.539,287.733 101.259,287.733 101.100 C 287.733 100.941,287.647 100.811,287.542 100.811 C 287.437 100.811,287.351 100.716,287.351 100.599 C 287.351 100.223,285.785 98.244,284.972 97.593 C 284.289 97.047,283.817 96.769,281.960 95.825 C 281.777 95.732,281.374 95.656,281.064 95.656 C 280.754 95.656,280.447 95.570,280.382 95.465 C 280.312 95.352,279.111 95.274,277.422 95.274 C 275.734 95.274,274.533 95.352,274.463 95.465 M306.826 95.465 C 306.826 95.570,306.573 95.656,306.264 95.656 C 305.955 95.656,305.650 95.742,305.585 95.847 C 305.520 95.952,305.300 96.038,305.096 96.038 C 304.892 96.038,304.726 96.124,304.726 96.229 C 304.726 96.334,304.554 96.420,304.344 96.420 C 304.134 96.420,303.962 96.496,303.962 96.589 C 303.962 96.681,303.779 96.805,303.555 96.864 C 303.267 96.939,303.185 97.065,303.273 97.295 C 303.370 97.548,303.342 97.573,303.146 97.410 C 302.954 97.251,302.809 97.314,302.542 97.670 C 301.946 98.463,301.490 98.125,301.482 96.883 C 301.475 95.811,300.906 95.656,296.971 95.656 C 294.406 95.656,293.279 95.723,293.117 95.885 C 292.707 96.295,292.794 122.310,293.206 122.468 C 293.586 122.614,302.355 122.596,302.740 122.448 C 302.963 122.363,303.007 120.979,303.007 113.979 C 303.007 107.154,303.055 105.566,303.268 105.360 C 303.868 104.780,304.548 104.248,304.689 104.248 C 304.772 104.248,304.939 104.149,305.060 104.028 C 305.257 103.831,305.978 103.778,307.255 103.867 C 307.492 103.883,307.580 103.939,307.452 103.991 C 307.288 104.057,307.330 104.205,307.595 104.489 C 307.870 104.785,307.971 105.162,307.971 105.896 C 307.971 106.447,308.057 106.952,308.162 107.017 C 308.284 107.092,308.353 109.916,308.353 114.859 L 308.353 122.584 313.174 122.533 L 317.995 122.482 318.045 112.470 C 318.077 105.923,318.027 102.390,317.901 102.264 C 317.796 102.158,317.709 101.830,317.709 101.534 C 317.709 101.239,317.630 100.848,317.534 100.666 C 317.439 100.483,317.129 99.834,316.846 99.223 C 316.273 97.986,314.963 96.515,314.622 96.726 C 314.501 96.801,314.456 96.777,314.521 96.672 C 314.657 96.452,313.259 95.656,312.738 95.656 C 312.544 95.656,312.332 95.570,312.267 95.465 C 312.198 95.353,311.056 95.274,309.488 95.274 C 307.840 95.274,306.826 95.347,306.826 95.465 M329.642 95.465 C 329.577 95.570,329.342 95.656,329.119 95.656 C 327.951 95.656,325.105 97.070,325.493 97.458 C 325.563 97.528,325.488 97.535,325.326 97.473 C 325.130 97.398,324.746 97.678,324.186 98.303 C 322.967 99.666,322.864 99.809,322.864 100.135 C 322.864 100.297,322.773 100.430,322.662 100.430 C 322.551 100.430,322.503 100.500,322.557 100.586 C 322.610 100.673,322.529 100.983,322.377 101.277 C 322.063 101.881,321.979 106.115,322.269 106.685 C 322.362 106.868,322.555 107.273,322.698 107.587 C 323.122 108.512,324.625 110.167,325.042 110.167 C 325.159 110.167,325.349 110.320,325.466 110.506 C 325.582 110.692,326.032 111.015,326.464 111.222 C 326.897 111.429,327.252 111.663,327.253 111.742 C 327.254 111.821,327.385 111.885,327.544 111.885 C 327.703 111.885,327.983 111.961,328.165 112.054 C 328.347 112.147,328.733 112.319,329.021 112.436 C 329.310 112.553,329.783 112.745,330.072 112.862 C 330.360 112.980,330.746 113.151,330.928 113.244 C 331.111 113.337,331.433 113.413,331.644 113.413 C 331.856 113.413,332.029 113.499,332.029 113.604 C 332.029 113.709,332.164 113.795,332.329 113.795 C 333.071 113.795,333.498 115.024,332.840 115.267 C 332.656 115.334,332.451 115.472,332.383 115.573 C 332.191 115.860,330.732 115.872,330.360 115.589 C 330.175 115.449,329.848 115.332,329.632 115.328 C 329.417 115.325,329.138 115.219,329.012 115.093 C 328.886 114.967,328.783 114.927,328.783 115.004 C 328.783 115.168,327.324 114.374,326.177 113.584 C 325.735 113.280,325.216 113.035,325.025 113.040 C 324.697 113.048,322.864 115.248,322.864 115.634 C 322.864 115.731,322.697 115.931,322.492 116.079 C 322.288 116.226,322.152 116.398,322.191 116.460 C 322.230 116.523,321.967 116.915,321.608 117.330 C 321.249 117.746,320.955 118.238,320.955 118.423 C 320.955 118.608,320.869 118.759,320.764 118.759 C 320.659 118.759,320.573 118.937,320.573 119.154 C 320.573 119.581,320.987 120.095,321.331 120.095 C 321.448 120.095,321.728 120.267,321.953 120.477 C 322.179 120.687,322.476 120.859,322.614 120.859 C 322.751 120.859,322.864 120.945,322.864 121.050 C 322.864 121.155,323.036 121.241,323.246 121.241 C 323.456 121.241,323.628 121.327,323.628 121.432 C 323.628 121.537,323.842 121.623,324.105 121.623 C 324.368 121.623,324.582 121.709,324.582 121.814 C 324.582 121.919,324.840 122.005,325.155 122.005 C 325.470 122.005,325.728 122.087,325.728 122.187 C 325.728 122.374,326.518 122.656,328.019 123.004 C 330.615 123.606,337.375 122.959,337.375 122.109 C 337.375 121.944,337.513 121.886,337.757 121.949 C 337.970 122.005,338.138 121.955,338.138 121.836 C 338.138 121.719,338.306 121.623,338.510 121.623 C 339.028 121.623,341.477 119.254,341.284 118.941 C 341.190 118.791,341.211 118.748,341.340 118.827 C 341.549 118.956,342.148 117.964,342.148 117.489 C 342.148 117.347,342.234 117.232,342.339 117.232 C 342.444 117.232,342.530 116.936,342.530 116.575 C 342.530 116.213,342.616 115.864,342.721 115.800 C 342.826 115.735,342.912 115.004,342.912 114.177 C 342.912 113.349,342.826 112.619,342.721 112.554 C 342.616 112.489,342.530 112.140,342.530 111.779 C 342.530 111.417,342.444 111.122,342.339 111.122 C 342.234 111.122,342.148 110.950,342.148 110.740 C 342.148 110.530,342.062 110.358,341.957 110.358 C 341.852 110.358,341.766 110.266,341.766 110.153 C 341.766 110.041,341.659 109.840,341.527 109.706 C 341.396 109.573,341.080 109.189,340.825 108.853 C 340.560 108.504,340.249 108.286,340.099 108.344 C 339.955 108.399,339.880 108.375,339.933 108.290 C 340.057 108.088,339.510 107.626,338.745 107.288 C 338.412 107.140,338.138 106.954,338.138 106.875 C 338.138 106.795,337.967 106.730,337.757 106.730 C 337.547 106.730,337.375 106.644,337.375 106.539 C 337.375 106.434,337.208 106.348,337.004 106.348 C 336.800 106.348,336.580 106.263,336.516 106.158 C 336.451 106.053,336.188 105.967,335.931 105.967 C 335.675 105.967,335.465 105.881,335.465 105.776 C 335.465 105.671,335.256 105.585,334.999 105.585 C 334.743 105.585,334.480 105.499,334.415 105.394 C 334.350 105.289,334.088 105.203,333.831 105.203 C 333.575 105.203,333.365 105.117,333.365 105.012 C 333.365 104.907,333.198 104.821,332.995 104.821 C 332.791 104.821,332.567 104.728,332.496 104.615 C 332.425 104.499,332.148 104.459,331.865 104.525 C 331.554 104.597,331.455 104.578,331.606 104.477 C 331.931 104.259,331.565 103.203,331.236 103.407 C 331.102 103.490,331.067 103.460,331.146 103.331 C 331.218 103.215,331.392 103.163,331.533 103.217 C 331.673 103.271,331.936 103.168,332.116 102.988 C 332.475 102.629,333.681 102.578,334.010 102.907 C 334.117 103.015,334.348 103.103,334.522 103.103 C 334.904 103.103,337.226 104.259,337.410 104.541 C 337.929 105.337,339.091 104.745,340.233 103.103 C 340.488 102.735,340.749 102.391,340.811 102.339 C 340.874 102.286,341.132 101.943,341.384 101.575 C 341.637 101.208,341.894 100.864,341.957 100.811 C 343.034 99.908,342.965 98.138,341.852 98.138 C 341.796 98.138,341.586 97.986,341.385 97.799 C 340.917 97.362,338.447 96.124,337.518 95.860 C 337.124 95.748,336.517 95.570,336.168 95.465 C 335.819 95.360,334.235 95.274,332.647 95.274 C 330.928 95.274,329.712 95.352,329.642 95.465 M354.654 95.465 C 354.589 95.570,354.288 95.656,353.986 95.656 C 353.683 95.656,353.382 95.742,353.317 95.847 C 353.253 95.952,353.033 96.038,352.829 96.038 C 352.625 96.038,352.458 96.124,352.458 96.229 C 352.458 96.334,352.303 96.420,352.114 96.420 C 351.676 96.420,350.038 97.450,349.370 98.146 C 349.090 98.438,348.792 98.620,348.708 98.551 C 348.625 98.482,348.669 98.572,348.806 98.751 C 349.025 99.037,349.006 99.068,348.657 99.001 C 348.437 98.959,348.258 98.998,348.258 99.088 C 348.258 99.178,347.959 99.559,347.593 99.936 C 347.227 100.312,346.974 100.621,347.030 100.621 C 347.086 100.621,346.930 100.900,346.683 101.241 C 346.010 102.171,345.712 102.852,345.836 103.175 C 345.916 103.383,345.860 103.432,345.640 103.347 C 345.382 103.248,345.351 103.339,345.445 103.919 C 345.534 104.466,345.501 104.586,345.284 104.503 C 345.077 104.423,345.012 104.576,345.012 105.144 C 345.012 105.555,344.924 105.978,344.816 106.086 C 344.552 106.350,344.652 112.566,344.920 112.521 C 345.035 112.501,345.085 112.800,345.042 113.253 C 345.002 113.674,345.064 114.114,345.181 114.231 C 345.298 114.348,345.394 114.642,345.394 114.883 C 345.394 115.125,345.480 115.322,345.585 115.322 C 345.690 115.322,345.776 115.442,345.776 115.589 C 345.776 116.478,347.802 119.346,348.119 118.905 C 348.245 118.731,348.265 118.753,348.192 118.982 C 348.036 119.472,349.083 120.435,349.642 120.317 C 349.721 120.300,349.785 120.378,349.785 120.491 C 349.785 120.795,350.288 121.241,350.631 121.241 C 350.796 121.241,350.931 121.327,350.931 121.432 C 350.931 121.537,351.103 121.623,351.313 121.623 C 351.523 121.623,351.695 121.709,351.695 121.814 C 351.695 121.919,351.866 122.005,352.076 122.005 C 352.286 122.005,352.458 122.080,352.458 122.172 C 352.458 122.337,353.219 122.592,354.940 123.005 C 356.814 123.455,361.482 123.225,363.007 122.608 C 363.296 122.492,363.532 122.442,363.532 122.498 C 363.532 122.553,363.811 122.453,364.153 122.275 C 365.295 121.677,365.435 121.623,365.821 121.623 C 366.032 121.623,366.205 121.553,366.205 121.468 C 366.205 121.382,366.506 121.194,366.874 121.050 C 367.241 120.906,367.542 120.718,367.542 120.633 C 367.542 120.547,367.669 120.477,367.825 120.477 C 368.289 120.477,368.410 119.526,368.030 118.865 C 367.845 118.544,367.424 117.766,367.093 117.136 C 366.762 116.506,366.427 115.962,366.348 115.927 C 366.270 115.892,366.205 115.698,366.205 115.497 C 366.205 115.296,366.119 115.131,366.014 115.131 C 365.909 115.131,365.823 115.009,365.823 114.859 C 365.823 114.420,364.889 113.785,364.519 113.971 C 364.344 114.060,363.943 114.238,363.628 114.368 C 363.313 114.497,362.906 114.679,362.723 114.772 C 362.541 114.864,362.224 114.940,362.019 114.940 C 361.813 114.940,361.592 115.026,361.527 115.131 C 361.374 115.380,357.748 115.381,357.500 115.132 C 357.396 115.028,357.084 114.924,356.807 114.901 C 356.531 114.878,356.346 114.792,356.397 114.709 C 356.448 114.626,356.393 114.558,356.274 114.558 C 355.966 114.558,354.749 113.126,354.749 112.763 C 354.749 112.700,357.829 112.649,361.593 112.649 C 369.400 112.649,368.914 112.758,369.259 110.939 C 369.508 109.626,369.506 106.766,369.255 105.622 C 369.147 105.129,368.962 104.296,368.845 103.771 C 368.182 100.800,365.548 97.343,363.150 96.298 C 362.783 96.137,362.333 95.927,362.151 95.831 C 361.968 95.735,361.565 95.656,361.255 95.656 C 360.945 95.656,360.638 95.570,360.573 95.465 C 360.503 95.352,359.302 95.274,357.613 95.274 C 355.925 95.274,354.724 95.352,354.654 95.465 M379.952 95.465 C 379.795 95.567,379.435 95.652,379.152 95.653 C 378.869 95.655,378.585 95.742,378.520 95.847 C 378.455 95.952,378.244 96.038,378.050 96.038 C 377.424 96.038,376.095 96.871,375.003 97.947 C 374.010 98.927,373.762 99.255,373.270 100.239 C 373.165 100.449,372.977 100.814,372.853 101.050 C 372.580 101.569,372.456 105.638,372.718 105.476 C 372.938 105.340,372.856 105.825,372.631 105.989 C 372.542 106.054,372.607 106.372,372.774 106.695 C 372.942 107.019,373.079 107.417,373.079 107.580 C 373.079 107.743,373.144 107.876,373.225 107.876 C 373.305 107.876,373.584 108.221,373.844 108.642 C 374.105 109.064,374.421 109.369,374.548 109.320 C 374.694 109.264,374.734 109.344,374.659 109.542 C 374.571 109.771,374.621 109.821,374.850 109.733 C 375.068 109.649,375.128 109.696,375.053 109.890 C 374.994 110.044,375.057 110.167,375.194 110.167 C 375.330 110.167,375.618 110.330,375.835 110.530 C 376.329 110.985,378.746 112.267,379.109 112.267 C 379.258 112.267,379.379 112.353,379.379 112.458 C 379.379 112.563,379.552 112.649,379.764 112.649 C 379.975 112.649,380.319 112.735,380.528 112.840 C 380.736 112.945,381.078 113.117,381.286 113.222 C 381.495 113.327,381.838 113.413,382.050 113.413 C 382.261 113.413,382.434 113.478,382.434 113.557 C 382.434 113.637,382.692 113.816,383.007 113.955 C 383.742 114.280,383.807 115.055,383.121 115.315 C 382.869 115.411,382.614 115.567,382.556 115.662 C 382.409 115.900,381.282 115.830,380.776 115.552 C 380.547 115.425,380.227 115.322,380.066 115.322 C 379.905 115.322,379.276 115.088,378.669 114.801 C 378.062 114.514,377.480 114.278,377.375 114.276 C 377.270 114.274,377.076 114.128,376.944 113.951 C 376.207 112.968,374.606 112.851,374.606 113.781 C 374.606 113.894,374.520 113.986,374.415 113.986 C 374.310 113.986,374.224 114.075,374.224 114.185 C 374.224 114.294,374.066 114.553,373.873 114.761 C 373.680 114.968,373.401 115.373,373.252 115.660 C 373.104 115.947,372.811 116.371,372.601 116.602 C 371.953 117.316,371.723 117.613,371.821 117.613 C 371.873 117.613,371.704 117.841,371.447 118.119 C 370.717 118.906,370.944 120.095,371.824 120.095 C 371.989 120.095,372.124 120.181,372.124 120.286 C 372.124 120.391,372.246 120.477,372.395 120.477 C 372.543 120.477,372.694 120.542,372.729 120.621 C 372.850 120.894,374.574 121.665,374.781 121.538 C 374.896 121.466,374.988 121.541,374.988 121.707 C 374.988 121.893,375.158 122.005,375.442 122.005 C 375.692 122.005,376.003 122.134,376.134 122.291 C 376.264 122.449,376.558 122.578,376.787 122.578 C 377.016 122.578,377.284 122.655,377.384 122.749 C 377.858 123.197,382.957 123.484,384.535 123.152 C 386.643 122.708,388.883 121.838,389.085 121.384 C 389.120 121.305,389.266 121.241,389.409 121.241 C 389.928 121.241,391.606 119.269,392.317 117.824 C 393.298 115.830,393.381 112.693,392.500 110.900 C 391.952 109.784,389.875 107.494,389.411 107.494 C 389.267 107.494,389.120 107.430,389.085 107.351 C 389.024 107.212,387.611 106.498,386.635 106.111 C 386.372 106.007,386.008 105.846,385.826 105.753 C 385.644 105.661,385.321 105.585,385.110 105.585 C 384.899 105.585,384.726 105.499,384.726 105.394 C 384.726 105.289,384.516 105.203,384.259 105.203 C 384.003 105.203,383.740 105.117,383.675 105.012 C 383.611 104.907,383.391 104.821,383.187 104.821 C 382.983 104.821,382.816 104.745,382.816 104.652 C 382.816 104.560,382.644 104.439,382.434 104.384 C 381.947 104.256,381.916 103.344,382.387 102.987 C 382.776 102.691,384.535 102.630,384.535 102.912 C 384.535 103.017,384.792 103.103,385.107 103.103 C 385.422 103.103,385.680 103.189,385.680 103.294 C 385.680 103.399,385.852 103.484,386.062 103.484 C 386.272 103.484,386.444 103.570,386.444 103.675 C 386.444 103.780,386.578 103.866,386.742 103.866 C 386.918 103.866,386.984 103.777,386.903 103.646 C 386.819 103.509,386.851 103.477,386.987 103.562 C 387.108 103.637,387.208 103.790,387.208 103.903 C 387.208 104.262,388.012 104.821,388.526 104.818 C 389.144 104.814,389.307 104.700,389.885 103.866 C 390.139 103.499,390.499 103.033,390.683 102.832 C 390.867 102.631,391.256 102.115,391.547 101.687 C 391.838 101.258,392.229 100.738,392.415 100.532 C 392.602 100.325,392.713 100.051,392.664 99.921 C 392.608 99.777,392.681 99.727,392.850 99.791 C 393.053 99.869,393.126 99.748,393.126 99.332 C 393.126 98.526,389.747 96.211,388.993 96.500 C 388.837 96.560,388.767 96.524,388.833 96.417 C 388.897 96.312,388.794 96.178,388.604 96.118 C 388.414 96.059,388.109 95.931,387.926 95.833 C 387.744 95.736,387.341 95.656,387.031 95.656 C 386.720 95.656,386.413 95.570,386.348 95.465 C 386.195 95.217,380.337 95.217,379.952 95.465 M236.134 122.339 C 236.105 127.038,236.082 123.193,236.082 113.795 C 236.082 104.396,236.105 100.551,236.134 105.251 C 236.162 109.950,236.162 117.640,236.134 122.339 M278.965 103.326 C 279.363 103.514,280.286 104.996,280.286 105.447 C 280.286 105.523,278.955 105.585,277.327 105.585 C 274.824 105.585,274.368 105.541,274.368 105.298 C 274.368 105.141,274.453 105.012,274.558 105.012 C 274.663 105.012,274.749 104.859,274.749 104.672 C 274.749 104.485,274.921 104.209,275.131 104.057 C 275.341 103.906,275.513 103.680,275.513 103.556 C 275.513 103.423,275.672 103.371,275.895 103.429 C 276.108 103.485,276.277 103.435,276.277 103.316 C 276.277 103.029,278.351 103.036,278.965 103.326 M359.631 103.771 C 359.968 104.139,360.281 104.698,360.327 105.012 L 360.411 105.585 357.342 105.570 C 355.653 105.561,354.379 105.511,354.511 105.458 C 354.642 105.405,354.749 105.197,354.749 104.996 C 354.749 104.795,354.834 104.630,354.937 104.630 C 355.040 104.630,355.177 104.418,355.242 104.159 C 355.307 103.900,355.459 103.707,355.580 103.730 C 355.701 103.752,355.779 103.667,355.754 103.539 C 355.729 103.412,355.828 103.353,355.973 103.409 C 356.119 103.465,356.295 103.419,356.364 103.307 C 356.708 102.750,358.993 103.076,359.631 103.771 M249.547 103.698 C 249.547 103.790,249.679 103.866,249.842 103.866 C 250.262 103.866,251.074 104.734,251.074 105.183 C 251.074 105.392,251.160 105.615,251.265 105.680 C 251.370 105.745,251.456 106.066,251.456 106.392 C 251.456 106.719,251.606 107.164,251.790 107.380 C 252.108 107.755,252.108 107.762,251.790 107.515 C 251.426 107.233,251.326 107.478,251.666 107.818 C 251.794 107.947,251.835 108.424,251.772 109.050 C 251.511 111.613,251.422 112.184,251.254 112.353 C 251.155 112.453,251.074 112.672,251.074 112.841 C 251.074 113.510,249.362 114.940,248.560 114.940 C 248.016 114.940,246.848 114.529,246.526 114.224 C 246.387 114.093,246.194 113.986,246.096 113.986 C 245.992 113.986,245.919 112.167,245.919 109.588 L 245.919 105.190 246.581 104.528 C 246.945 104.164,247.374 103.866,247.535 103.866 C 247.696 103.866,247.828 103.786,247.828 103.689 C 247.828 103.591,248.021 103.482,248.258 103.446 C 248.848 103.358,249.547 103.494,249.547 103.698 " class="color0c64b4 svgShape"></path><path fill="#0c6cb4" fill-rule="evenodd" d="M153.793 63.675 C 153.793 87.618,153.815 97.385,153.842 85.378 C 153.870 73.372,153.870 53.783,153.842 41.846 C 153.815 29.910,153.793 39.733,153.793 63.675 M75.553 32.611 C 75.796 32.765,78.470 32.715,78.633 32.553 C 78.685 32.501,77.961 32.460,77.025 32.461 C 76.088 32.463,75.426 32.530,75.553 32.611 M236.082 113.795 C 236.082 123.193,236.105 127.038,236.134 122.339 C 236.162 117.640,236.162 109.950,236.134 105.251 C 236.105 100.551,236.082 104.396,236.082 113.795 M62.434 121.337 C 62.434 121.844,62.495 122.199,62.568 122.125 C 62.709 121.984,62.670 120.650,62.521 120.500 C 62.473 120.453,62.434 120.829,62.434 121.337 " class="color0c6cb4 svgShape"></path><path fill="#1064b4" fill-rule="evenodd" d="M205.138 92.411 C 205.138 94.248,205.167 95.000,205.202 94.081 C 205.237 93.162,205.237 91.659,205.202 90.740 C 205.167 89.821,205.138 90.573,205.138 92.411 " class="color1064b4 svgShape"></path><path fill="#1064b4" fill-rule="evenodd" d="M205.138 92.411 C 205.138 94.248,205.167 95.000,205.202 94.081 C 205.237 93.162,205.237 91.659,205.202 90.740 C 205.167 89.821,205.138 90.573,205.138 92.411 " class="color1064b4 svgShape"></path><path fill="#1064b4" fill-rule="evenodd" d="M205.138 92.411 C 205.138 94.248,205.167 95.000,205.202 94.081 C 205.237 93.162,205.237 91.659,205.202 90.740 C 205.167 89.821,205.138 90.573,205.138 92.411 " class="color1064b4 svgShape"></path></svg></g></svg>